<?xml version="1.0" encoding="utf-8"?>
<!-- Generator: Adobe Illustrator 24.2.0, SVG Export Plug-In . SVG Version: 6.00 Build 0)  -->
<svg version="1.1" id="Capa_1" xmlns="http://www.w3.org/2000/svg" xmlns:xlink="http://www.w3.org/1999/xlink" x="0px" y="0px"
	 viewBox="0 0 35.6 50.3" style="enable-background:new 0 0 35.6 50.3;" xml:space="preserve">
<style type="text/css">
	.st0{fill:url(#SVGID_1_);}
	.st1{fill:url(#SVGID_2_);}
	.st2{fill:url(#SVGID_3_);}
</style>
<g>
	<linearGradient id="SVGID_1_" gradientUnits="userSpaceOnUse" x1="-110.9231" y1="25.5001" x2="-76.0057" y2="25.5001">
		<stop  offset="0" style="stop-color:#00BA5C"/>
		<stop  offset="1" style="stop-color:#008896"/>
	</linearGradient>
	<path class="st0" d="M-76,46.3c0.1,0.2,0,0.4-0.2,0.6c-2.3,1.4-5.9,2.8-10.4,2.8c-5.8,0-11-2.2-14.6-6.4c-2.7-2.9-4.4-7-5.1-12
		c0-0.2-0.2-0.4-0.5-0.4c-0.8,0-2.7,0-3.5,0c-0.3,0-0.5-0.2-0.5-0.5v-2.5c0-0.3,0.2-0.5,0.5-0.5l3,0c0.3,0,0.6-0.3,0.6-0.6
		c0-1.1,0-2.2,0.1-3.2c0-0.3-0.2-0.5-0.5-0.5c-0.8,0-2.4,0-3.2,0c-0.3,0-0.5-0.2-0.5-0.5V20c0-0.3,0.2-0.5,0.5-0.5l3.8,0
		c0.2,0,0.4-0.2,0.5-0.4c0.9-4.9,3-8.9,5.8-11.8c3.7-3.8,8.4-6,14.3-6c4,0,7.2,1.1,9.2,2.1c0.2,0.1,0.3,0.4,0.2,0.6
		c-0.3,0.8-0.8,2.8-1.1,3.8c-0.1,0.3-0.4,0.4-0.7,0.3c-1.8-1-4.6-1.7-7.5-1.7c-3.9,0-7.1,1.4-9.5,4c-2,2-3.4,5-4.2,8.5
		c-0.1,0.3,0.2,0.6,0.5,0.6l19,0c0.3,0,0.5,0.2,0.5,0.5v2.6c0,0.3-0.2,0.5-0.5,0.5l-19.8,0c-0.3,0-0.5,0.2-0.5,0.5
		c-0.1,0.8-0.1,1.7-0.1,2.6c0,0.4,0,0.8,0,1.3h20.4c0.3,0,0.5,0.2,0.5,0.5v2.5c0,0.3-0.2,0.5-0.5,0.5l-19.3,0
		c-0.3,0-0.5,0.3-0.5,0.6c0.6,3.9,2,6.8,3.9,8.8c2.7,2.8,6.3,4.2,10.2,4.2c3.4,0,6.5-1.2,8.2-2.1c0.3-0.1,0.6,0,0.7,0.3L-76,46.3z"
		/>
</g>
<g>
	<linearGradient id="SVGID_2_" gradientUnits="userSpaceOnUse" x1="-55.3231" y1="25.5001" x2="-20.4058" y2="25.5001">
		<stop  offset="0" style="stop-color:#00BA5C"/>
		<stop  offset="1" style="stop-color:#008896"/>
	</linearGradient>
	<path class="st1" d="M-20.4,46.3c0.1,0.2,0,0.4-0.2,0.6c-2.3,1.4-5.9,2.8-10.4,2.8c-5.8,0-11-2.2-14.6-6.4c-2.7-2.9-4.4-7-5.1-12
		c0-0.2-0.2-0.4-0.5-0.4c-0.8,0-2.7,0-3.5,0c-0.3,0-0.5-0.2-0.5-0.5v-2.5c0-0.3,0.2-0.5,0.5-0.5l3,0c0.3,0,0.6-0.3,0.6-0.6
		c0-1.1,0-2.2,0.1-3.2c0-0.3-0.2-0.5-0.5-0.5c-0.8,0-2.4,0-3.2,0c-0.3,0-0.5-0.2-0.5-0.5V20c0-0.3,0.2-0.5,0.5-0.5l3.8,0
		c0.2,0,0.4-0.2,0.5-0.4c0.9-4.9,3-8.9,5.8-11.8c3.7-3.8,8.4-6,14.3-6c4,0,7.2,1.1,9.2,2.1C-21,3.5-20.9,3.8-21,4
		c-0.3,0.8-0.8,2.8-1.1,3.8c-0.1,0.3-0.4,0.4-0.7,0.3c-1.8-1-4.6-1.7-7.5-1.7c-3.9,0-7.1,1.4-9.5,4c-2,2-3.4,5-4.2,8.5
		c-0.1,0.3,0.2,0.6,0.5,0.6l19,0c0.3,0,0.5,0.2,0.5,0.5v2.6c0,0.3-0.2,0.5-0.5,0.5l-19.8,0c-0.3,0-0.5,0.2-0.5,0.5
		c-0.1,0.8-0.1,1.7-0.1,2.6c0,0.4,0,0.8,0,1.3h20.4c0.3,0,0.5,0.2,0.5,0.5v2.5c0,0.3-0.2,0.5-0.5,0.5l-19.3,0
		c-0.3,0-0.5,0.3-0.5,0.6c0.6,3.9,2,6.8,3.9,8.8c2.7,2.8,6.3,4.2,10.2,4.2c3.4,0,6.5-1.2,8.2-2.1c0.3-0.1,0.6,0,0.7,0.3L-20.4,46.3z
		"/>
</g>
<g>
	<linearGradient id="SVGID_3_" gradientUnits="userSpaceOnUse" x1="0.2769" y1="25.5001" x2="35.1942" y2="25.5001">
		<stop  offset="0" style="stop-color:#00BA5C"/>
		<stop  offset="1" style="stop-color:#008896"/>
	</linearGradient>
	<path class="st2" d="M35.2,46.3c0.1,0.2,0,0.4-0.2,0.6c-2.3,1.4-5.9,2.8-10.4,2.8c-5.8,0-11-2.2-14.6-6.4c-2.7-2.9-4.4-7-5.1-12
		c0-0.2-0.2-0.4-0.5-0.4c-0.8,0-2.7,0-3.5,0c-0.3,0-0.5-0.2-0.5-0.5v-2.5c0-0.3,0.2-0.5,0.5-0.5l3,0c0.3,0,0.6-0.3,0.6-0.6
		c0-1.1,0-2.2,0.1-3.2c0-0.3-0.2-0.5-0.5-0.5c-0.8,0-2.4,0-3.2,0c-0.3,0-0.5-0.2-0.5-0.5V20c0-0.3,0.2-0.5,0.5-0.5l3.8,0
		c0.2,0,0.4-0.2,0.5-0.4c0.9-4.9,3-8.9,5.8-11.8c3.7-3.8,8.4-6,14.3-6c4,0,7.2,1.1,9.2,2.1c0.2,0.1,0.3,0.4,0.2,0.6
		c-0.3,0.8-0.8,2.8-1.1,3.8c-0.1,0.3-0.4,0.4-0.7,0.3c-1.8-1-4.6-1.7-7.5-1.7c-3.9,0-7.1,1.4-9.5,4c-2,2-3.4,5-4.2,8.5
		c-0.1,0.3,0.2,0.6,0.5,0.6l19,0c0.3,0,0.5,0.2,0.5,0.5v2.6c0,0.3-0.2,0.5-0.5,0.5l-19.8,0c-0.3,0-0.5,0.2-0.5,0.5
		c-0.1,0.8-0.1,1.7-0.1,2.6c0,0.4,0,0.8,0,1.3H31c0.3,0,0.5,0.2,0.5,0.5v2.5c0,0.3-0.2,0.5-0.5,0.5l-19.3,0c-0.3,0-0.5,0.3-0.5,0.6
		c0.6,3.9,2,6.8,3.9,8.8c2.7,2.8,6.3,4.2,10.2,4.2c3.4,0,6.5-1.2,8.2-2.1c0.3-0.1,0.6,0,0.7,0.3L35.2,46.3z"/>
</g>
</svg>
