<svg id="Capa_1" data-name="Capa 1" xmlns="http://www.w3.org/2000/svg" viewBox="0 0 35.6 50.3"><path d="M11.28,34.89c-5,2-8.36,1.38-10.23-2-1.67-3-.59-6,3.15-8.85-3.84-3-4.92-6-3.15-9.06,2-3.34,5.22-3.93,10.23-1.86,0-2.46.5-4.63,2.56-6.3a6.77,6.77,0,0,1,4.33-1.48c3.54.1,5.61,2.56,6.2,7.58,5.51-1.77,8.56-1.08,10.33,2.36,1.57,3,.39,6.1-3.44,8.66a7.29,7.29,0,0,1,3.83,5.11,5.34,5.34,0,0,1-.78,4c-1.87,3.15-5.12,3.74-10,1.67a7.19,7.19,0,0,1-2.85,6.59,6.27,6.27,0,0,1-4.53,1C13.45,42.07,11.48,39.41,11.28,34.89Z" style="fill:#bc0926"/><path d="M15.12,19.44c-.59-2-1.18-3.64-1.57-5.51a5.12,5.12,0,0,1,1-4.72A4.08,4.08,0,0,1,19,7.73a4.55,4.55,0,0,1,3.24,3.84,13.4,13.4,0,0,1-.68,5.22c-.3.78-.5,1.57-.79,2.45L24,16.29A7.73,7.73,0,0,1,28.4,14a4.33,4.33,0,0,1,4.72,2.66,4.06,4.06,0,0,1-2.06,5,21.78,21.78,0,0,1-5.61,1.87c-.49.1-.88.2-1.67.4,1.87.49,3.64.69,5.21,1.28a7.16,7.16,0,0,1,2.56,1.47,4.16,4.16,0,0,1,1,5.22,4.56,4.56,0,0,1-5.21,1.87,12.48,12.48,0,0,1-5.21-3.74c-.4-.4-.69-1.09-1.58-1.38.49,1.77.89,3.34,1.28,5a6.67,6.67,0,0,1-.1,3.93,4.37,4.37,0,0,1-4.82,2.66,4.42,4.42,0,0,1-3.64-4.13A15.52,15.52,0,0,1,14.14,31c.29-.78.59-1.57.88-2.56a3.59,3.59,0,0,0-1.47,1.09,35.26,35.26,0,0,1-3.35,3.15,5.48,5.48,0,0,1-5,1.18,4,4,0,0,1-2.95-3.25c-.29-1.67.59-2.95,1.77-4,1.87-1.68,4.33-1.87,6.69-2.46.2-.1.5,0,.69-.3-1.57-.39-3.05-.69-4.62-1.18a6.49,6.49,0,0,1-3.84-2.46,3.88,3.88,0,0,1-.2-4.43,4.26,4.26,0,0,1,4.33-2c2.56.49,4.33,2.06,6,3.83C13.84,18.36,14.24,19.05,15.12,19.44Z" style="fill:#fefefe"/></svg>