<svg id="Capa_1" data-name="Capa 1" xmlns="http://www.w3.org/2000/svg" xmlns:xlink="http://www.w3.org/1999/xlink" viewBox="0 0 93.49 50.3"><defs><linearGradient id="Degradado_sin_nombre_2" x1="2.57" y1="24.23" x2="37.48" y2="24.23" gradientTransform="matrix(1, 0, 0, -1, 0, 49.73)" gradientUnits="userSpaceOnUse"><stop offset="0" stop-color="#00ba5c"/><stop offset="1" stop-color="#008896"/></linearGradient><linearGradient id="Degradado_sin_nombre_3" x1="58.17" y1="24.23" x2="93.08" y2="24.23" xlink:href="#Degradado_sin_nombre_2"/></defs><path d="M37.49,46.3c.1.2,0,.4-.2.6a20.17,20.17,0,0,1-10.4,2.8,18.79,18.79,0,0,1-14.6-6.4c-2.7-2.9-4.4-7-5.1-12a.46.46,0,0,0-.5-.4H3.19a.47.47,0,0,1-.5-.5V27.9a.47.47,0,0,1,.5-.5h3a.65.65,0,0,0,.6-.6c0-1.1,0-2.2.1-3.2a.47.47,0,0,0-.5-.5H3.19a.47.47,0,0,1-.5-.5V20a.47.47,0,0,1,.5-.5H7a.66.66,0,0,0,.5-.4,22.69,22.69,0,0,1,5.8-11.8,19.21,19.21,0,0,1,14.3-6,20.79,20.79,0,0,1,9.2,2.1.61.61,0,0,1,.1.6c-.3.8-.8,2.8-1.1,3.8a.52.52,0,0,1-.7.3,16.3,16.3,0,0,0-7.5-1.7,12.44,12.44,0,0,0-9.5,4,17.47,17.47,0,0,0-4.2,8.5.5.5,0,0,0,.5.6h19a.47.47,0,0,1,.5.5v2.6a.47.47,0,0,1-.5.5H13.59a.47.47,0,0,0-.5.5,21.75,21.75,0,0,0-.1,2.6v1.3h20.4a.47.47,0,0,1,.5.5v2.5a.47.47,0,0,1-.5.5H14.09a.56.56,0,0,0-.5.6,16,16,0,0,0,3.9,8.8,13.89,13.89,0,0,0,10.2,4.2,18.42,18.42,0,0,0,8.2-2.1.52.52,0,0,1,.7.3Z" style="fill:url(#Degradado_sin_nombre_2)"/><path d="M93.09,46.3c.1.2,0,.4-.2.6a20.17,20.17,0,0,1-10.4,2.8,18.79,18.79,0,0,1-14.6-6.4c-2.7-2.9-4.4-7-5.1-12a.46.46,0,0,0-.5-.4h-3.5a.47.47,0,0,1-.5-.5V27.9a.47.47,0,0,1,.5-.5h3a.65.65,0,0,0,.6-.6c0-1.1,0-2.2.1-3.2a.47.47,0,0,0-.5-.5h-3.2a.47.47,0,0,1-.5-.5V20a.47.47,0,0,1,.5-.5h3.8a.66.66,0,0,0,.5-.4,22.69,22.69,0,0,1,5.8-11.8,19.21,19.21,0,0,1,14.3-6,20.79,20.79,0,0,1,9.2,2.1.48.48,0,0,1,.2.6c-.3.8-.8,2.8-1.1,3.8a.52.52,0,0,1-.7.3,16.3,16.3,0,0,0-7.5-1.7,12.44,12.44,0,0,0-9.5,4,17.47,17.47,0,0,0-4.2,8.5.5.5,0,0,0,.5.6h19a.47.47,0,0,1,.5.5v2.6a.47.47,0,0,1-.5.5H69.29a.47.47,0,0,0-.5.5,21.75,21.75,0,0,0-.1,2.6v1.3h20.2a.47.47,0,0,1,.5.5v2.5a.47.47,0,0,1-.5.5H69.59a.56.56,0,0,0-.5.6A16,16,0,0,0,73,40.4a13.89,13.89,0,0,0,10.2,4.2,18.42,18.42,0,0,0,8.2-2.1.52.52,0,0,1,.7.3Z" style="fill:url(#Degradado_sin_nombre_3)"/></svg>