<svg id="Capa_1" data-name="Capa 1" xmlns="http://www.w3.org/2000/svg" xmlns:xlink="http://www.w3.org/1999/xlink" viewBox="0 0 146.04 48.4"><defs><linearGradient id="Degradado_sin_nombre" x1="1.73" y1="24.23" x2="36.64" y2="24.23" gradientTransform="matrix(1, 0, 0, -1, 0, 49.73)" gradientUnits="userSpaceOnUse"><stop offset="0" stop-color="#00ba5c"/><stop offset="1" stop-color="#008896"/></linearGradient><linearGradient id="Degradado_sin_nombre_2" x1="57.33" y1="24.23" x2="92.24" y2="24.23" xlink:href="#Degradado_sin_nombre"/><linearGradient id="Degradado_sin_nombre_3" x1="112.93" y1="24.23" x2="147.84" y2="24.23" xlink:href="#Degradado_sin_nombre"/></defs><path d="M36.65,46.3c.1.2,0,.4-.2.6a20.17,20.17,0,0,1-10.4,2.8,18.79,18.79,0,0,1-14.6-6.4c-2.7-2.9-4.4-7-5.1-12a.46.46,0,0,0-.5-.4H2.35a.47.47,0,0,1-.5-.5V27.9a.47.47,0,0,1,.5-.5h3a.65.65,0,0,0,.6-.6c0-1.1,0-2.2.1-3.2a.47.47,0,0,0-.5-.5H2.35a.47.47,0,0,1-.5-.5V20a.47.47,0,0,1,.5-.5h3.8a.66.66,0,0,0,.5-.4,22.69,22.69,0,0,1,5.8-11.8,19.21,19.21,0,0,1,14.3-6A20.79,20.79,0,0,1,36,3.4a.48.48,0,0,1,.2.6c-.3.8-.8,2.8-1.1,3.8a.52.52,0,0,1-.7.3,16.3,16.3,0,0,0-7.5-1.7,12.44,12.44,0,0,0-9.5,4,17.47,17.47,0,0,0-4.2,8.5.5.5,0,0,0,.5.6h19a.47.47,0,0,1,.5.5v2.6a.47.47,0,0,1-.5.5H12.85a.47.47,0,0,0-.5.5,21.75,21.75,0,0,0-.1,2.6v1.3h20.4a.47.47,0,0,1,.5.5v2.5a.47.47,0,0,1-.5.5H13.35a.56.56,0,0,0-.5.6,16,16,0,0,0,3.9,8.8A13.89,13.89,0,0,0,27,44.6a18.42,18.42,0,0,0,8.2-2.1.52.52,0,0,1,.7.3Z" transform="translate(-1.85 -1.3)" style="fill:url(#Degradado_sin_nombre)"/><path d="M92.25,46.3c.1.2,0,.4-.2.6a20.17,20.17,0,0,1-10.4,2.8,18.79,18.79,0,0,1-14.6-6.4c-2.7-2.9-4.4-7-5.1-12a.46.46,0,0,0-.5-.4H58a.47.47,0,0,1-.5-.5V27.9a.47.47,0,0,1,.5-.5h3a.65.65,0,0,0,.6-.6c0-1.1,0-2.2.1-3.2a.47.47,0,0,0-.5-.5H58a.47.47,0,0,1-.5-.5V20a.47.47,0,0,1,.5-.5h3.8a.66.66,0,0,0,.5-.4,22.69,22.69,0,0,1,5.8-11.8,19.21,19.21,0,0,1,14.3-6,20.79,20.79,0,0,1,9.2,2.1.61.61,0,0,1,.1.6c-.3.8-.8,2.8-1.1,3.8a.52.52,0,0,1-.7.3,16.3,16.3,0,0,0-7.5-1.7,12.44,12.44,0,0,0-9.5,4,17.47,17.47,0,0,0-4.2,8.5.5.5,0,0,0,.5.6h19a.47.47,0,0,1,.5.5v2.6a.47.47,0,0,1-.5.5H68.35a.47.47,0,0,0-.5.5,21.75,21.75,0,0,0-.1,2.6v1.3h20.4a.47.47,0,0,1,.5.5v2.5a.47.47,0,0,1-.5.5H68.85a.56.56,0,0,0-.5.6,16,16,0,0,0,3.9,8.8,13.89,13.89,0,0,0,10.2,4.2,18.42,18.42,0,0,0,8.2-2.1.52.52,0,0,1,.7.3Z" transform="translate(-1.85 -1.3)" style="fill:url(#Degradado_sin_nombre_2)"/><path d="M147.85,46.3c.1.2,0,.4-.2.6a20.17,20.17,0,0,1-10.4,2.8,18.79,18.79,0,0,1-14.6-6.4c-2.7-2.9-4.4-7-5.1-12a.46.46,0,0,0-.5-.4h-3.5a.47.47,0,0,1-.5-.5V27.9a.47.47,0,0,1,.5-.5h3a.65.65,0,0,0,.6-.6c0-1.1,0-2.2.1-3.2a.47.47,0,0,0-.5-.5h-3.2a.47.47,0,0,1-.5-.5V20a.47.47,0,0,1,.5-.5h3.8a.66.66,0,0,0,.5-.4,22.69,22.69,0,0,1,5.8-11.8,19.21,19.21,0,0,1,14.3-6,20.79,20.79,0,0,1,9.2,2.1.48.48,0,0,1,.2.6c-.3.8-.8,2.8-1.1,3.8a.52.52,0,0,1-.7.3,16.3,16.3,0,0,0-7.5-1.7,12.44,12.44,0,0,0-9.5,4,17.47,17.47,0,0,0-4.2,8.5.5.5,0,0,0,.5.6h19a.47.47,0,0,1,.5.5v2.6a.47.47,0,0,1-.5.5h-19.8a.47.47,0,0,0-.5.5,21.75,21.75,0,0,0-.1,2.6v1.3h20.2a.47.47,0,0,1,.5.5v2.5a.47.47,0,0,1-.5.5h-19.3a.56.56,0,0,0-.5.6,16,16,0,0,0,3.9,8.8A13.89,13.89,0,0,0,138,44.6a18.42,18.42,0,0,0,8.2-2.1.52.52,0,0,1,.7.3Z" transform="translate(-1.85 -1.3)" style="fill:url(#Degradado_sin_nombre_3)"/></svg>