<svg id="Capa_1" data-name="Capa 1" xmlns="http://www.w3.org/2000/svg" viewBox="0 0 151.58 50.3"><path d="M127.26,36.15c-5,2-8.36,1.38-10.23-2-1.67-2.95-.59-6,3.15-8.85-3.84-2.95-4.92-6-3.15-9,2-3.35,5.21-3.94,10.23-1.87,0-2.46.49-4.63,2.56-6.3a6.8,6.8,0,0,1,4.33-1.48c3.54.1,5.6,2.56,6.2,7.58,5.5-1.77,8.55-1.08,10.33,2.36,1.57,3.05.39,6.1-3.45,8.66a7.28,7.28,0,0,1,3.84,5.11,5.35,5.35,0,0,1-.79,4c-1.87,3.15-5.11,3.74-10,1.67a7.2,7.2,0,0,1-2.86,6.59,6.24,6.24,0,0,1-4.52,1C129.42,43.33,127.46,40.67,127.26,36.15Z" style="fill:#bc0926"/><path d="M131.1,20.7c-.59-2-1.18-3.64-1.58-5.51a5.16,5.16,0,0,1,1-4.72A4,4,0,0,1,134.93,9a4.53,4.53,0,0,1,3.25,3.83,13.41,13.41,0,0,1-.69,5.22c-.29.78-.49,1.57-.78,2.46l3.24-3a7.73,7.73,0,0,1,4.43-2.26A4.34,4.34,0,0,1,149.1,18,4.08,4.08,0,0,1,147,23a22.28,22.28,0,0,1-5.61,1.86c-.49.1-.89.2-1.68.4,1.87.49,3.65.69,5.22,1.28A7.25,7.25,0,0,1,147.53,28a4.17,4.17,0,0,1,1,5.22,4.56,4.56,0,0,1-5.21,1.87,12.51,12.51,0,0,1-5.22-3.74c-.39-.4-.69-1.08-1.57-1.38.49,1.77.88,3.35,1.28,5a6.75,6.75,0,0,1-.1,3.93,4.4,4.4,0,0,1-8.46-1.47,15.76,15.76,0,0,1,.88-5.22c.3-.78.59-1.57.89-2.55a3.53,3.53,0,0,0-1.48,1.08,34,34,0,0,1-3.34,3.15,5.49,5.49,0,0,1-5,1.18,4,4,0,0,1-3-3.25c-.3-1.67.59-2.95,1.77-4,1.87-1.68,4.33-1.87,6.69-2.46.2-.1.49,0,.69-.3-1.58-.39-3-.69-4.63-1.18a6.5,6.5,0,0,1-3.83-2.46,3.86,3.86,0,0,1-.2-4.43A4.26,4.26,0,0,1,123,15c2.56.49,4.33,2.06,6,3.83C129.82,19.62,130.21,20.31,131.1,20.7Z" style="fill:#fefefe"/><path d="M70.08,36.15c-5,2-8.36,1.38-10.23-2-1.67-2.95-.59-6,3.15-8.85-3.84-2.95-4.92-6-3.15-9,2-3.35,5.22-3.94,10.23-1.87,0-2.46.5-4.63,2.56-6.3A6.82,6.82,0,0,1,77,6.63c3.54.1,5.61,2.56,6.2,7.58,5.51-1.77,8.56-1.08,10.33,2.36,1.57,3.05.39,6.1-3.44,8.66a7.29,7.29,0,0,1,3.83,5.11,5.34,5.34,0,0,1-.78,4c-1.87,3.15-5.12,3.74-10,1.67a7.19,7.19,0,0,1-2.85,6.59,6.27,6.27,0,0,1-4.53,1C72.25,43.33,70.28,40.67,70.08,36.15Z" style="fill:#bc0926"/><path d="M73.92,20.7c-.59-2-1.18-3.64-1.57-5.51a5.12,5.12,0,0,1,1-4.72A4.06,4.06,0,0,1,77.76,9,4.53,4.53,0,0,1,81,12.83a13.4,13.4,0,0,1-.68,5.22c-.3.78-.5,1.57-.79,2.46l3.25-3a7.67,7.67,0,0,1,4.42-2.26A4.33,4.33,0,0,1,91.92,18a4.07,4.07,0,0,1-2.06,5,22.15,22.15,0,0,1-5.61,1.86c-.49.1-.88.2-1.67.4,1.87.49,3.64.69,5.21,1.28A7.16,7.16,0,0,1,90.35,28a4.16,4.16,0,0,1,1,5.22,4.56,4.56,0,0,1-5.21,1.87,12.48,12.48,0,0,1-5.21-3.74c-.4-.4-.69-1.08-1.58-1.38.49,1.77.89,3.35,1.28,5a6.67,6.67,0,0,1-.1,3.93,4.37,4.37,0,0,1-4.82,2.66,4.42,4.42,0,0,1-3.64-4.13,15.52,15.52,0,0,1,.89-5.22c.29-.78.59-1.57.88-2.55a3.5,3.5,0,0,0-1.47,1.08A35.26,35.26,0,0,1,69,33.89a5.48,5.48,0,0,1-5,1.18A4,4,0,0,1,61,31.82c-.29-1.67.59-2.95,1.77-4,1.87-1.68,4.33-1.87,6.69-2.46.2-.1.5,0,.69-.3-1.57-.39-3.05-.69-4.62-1.18a6.52,6.52,0,0,1-3.84-2.46,3.88,3.88,0,0,1-.2-4.43,4.26,4.26,0,0,1,4.33-2c2.56.49,4.33,2.06,6,3.83C72.64,19.62,73,20.31,73.92,20.7Z" style="fill:#fefefe"/><path d="M12.91,36.15c-5,2-8.37,1.38-10.23-2-1.68-2.95-.59-6,3.14-8.85-3.83-2.95-4.92-6-3.14-9,2-3.35,5.21-3.94,10.23-1.87,0-2.46.49-4.63,2.56-6.3a6.78,6.78,0,0,1,4.32-1.48c3.55.1,5.61,2.56,6.2,7.58,5.51-1.77,8.56-1.08,10.33,2.36,1.58,3.05.4,6.1-3.44,8.66a7.3,7.3,0,0,1,3.84,5.11,5.35,5.35,0,0,1-.79,4c-1.87,3.15-5.12,3.74-10,1.67A7.17,7.17,0,0,1,23,42.64a6.25,6.25,0,0,1-4.52,1C15.07,43.33,13.1,40.67,12.91,36.15Z" style="fill:#bc0926"/><path d="M16.74,20.7c-.59-2-1.18-3.64-1.57-5.51a5.15,5.15,0,0,1,1-4.72A4.06,4.06,0,0,1,20.58,9a4.55,4.55,0,0,1,3.25,3.83,13.6,13.6,0,0,1-.69,5.22c-.3.78-.49,1.57-.79,2.46l3.25-3A7.73,7.73,0,0,1,30,15.29,4.34,4.34,0,0,1,34.75,18a4.08,4.08,0,0,1-2.07,5,22.15,22.15,0,0,1-5.61,1.86c-.49.1-.88.2-1.67.4,1.87.49,3.64.69,5.22,1.28A7.12,7.12,0,0,1,33.17,28a4.16,4.16,0,0,1,1,5.22,4.58,4.58,0,0,1-5.22,1.87,12.54,12.54,0,0,1-5.21-3.74c-.39-.4-.69-1.08-1.57-1.38.49,1.77.88,3.35,1.27,5a6.67,6.67,0,0,1-.09,3.93,4.4,4.4,0,0,1-8.47-1.47,16,16,0,0,1,.89-5.22c.3-.78.59-1.57.89-2.55a3.47,3.47,0,0,0-1.48,1.08,34,34,0,0,1-3.34,3.15,5.49,5.49,0,0,1-5,1.18,4,4,0,0,1-2.95-3.25c-.3-1.67.59-2.95,1.77-4,1.87-1.68,4.33-1.87,6.69-2.46.19-.1.49,0,.69-.3-1.58-.39-3-.69-4.63-1.18a6.55,6.55,0,0,1-3.84-2.46A3.86,3.86,0,0,1,4.35,17a4.24,4.24,0,0,1,4.33-2c2.55.49,4.33,2.06,6,3.83C15.47,19.62,15.86,20.31,16.74,20.7Z" style="fill:#fefefe"/></svg>