<?xml version="1.0" encoding="utf-8"?>
<!-- Generator: Adobe Illustrator 25.0.1, SVG Export Plug-In . SVG Version: 6.00 Build 0)  -->
<svg version="1.1" id="Capa_1" xmlns="http://www.w3.org/2000/svg" xmlns:xlink="http://www.w3.org/1999/xlink" x="0px" y="0px"
	 viewBox="0 0 44.3 53" style="enable-background:new 0 0 44.3 53;" xml:space="preserve">
<style type="text/css">
	.st0{fill:url(#SVGID_1_);stroke:url(#SVGID_2_);stroke-width:0.5;stroke-miterlimit:10;}
	.st1{fill:url(#SVGID_3_);stroke:url(#SVGID_4_);stroke-width:0.5;stroke-miterlimit:10;}
	.st2{fill:none;stroke:url(#SVGID_5_);stroke-width:2;stroke-miterlimit:10;}
</style>
<g>
	<g>
		<linearGradient id="SVGID_1_" gradientUnits="userSpaceOnUse" x1="22.155" y1="0.6592" x2="22.155" y2="52.5465">
			<stop  offset="0" style="stop-color:#00BA5C"/>
			<stop  offset="1" style="stop-color:#008896"/>
		</linearGradient>
		<linearGradient id="SVGID_2_" gradientUnits="userSpaceOnUse" x1="22.155" y1="0.4092" x2="22.155" y2="52.7965">
			<stop  offset="0" style="stop-color:#00BA5C"/>
			<stop  offset="1" style="stop-color:#008896"/>
		</linearGradient>
		<path class="st0" d="M7.8,0.7c-3.9,0-7.1,3.2-7.1,7.2v37.5c0,4,3.2,7.2,7.1,7.2h35.7V0.7H7.8z M41.6,50.6H7.8
			c-2.9,0-5.2-2.4-5.2-5.3V7.9c0-2.9,2.3-5.3,5.2-5.3h33.8V50.6z M42.6,51.6V1.6V51.6L42.6,51.6z"/>
		<linearGradient id="SVGID_3_" gradientUnits="userSpaceOnUse" x1="22.6089" y1="6.7736" x2="22.6089" y2="40.0608">
			<stop  offset="0" style="stop-color:#00BA5C"/>
			<stop  offset="1" style="stop-color:#008896"/>
		</linearGradient>
		<linearGradient id="SVGID_4_" gradientUnits="userSpaceOnUse" x1="22.6089" y1="6.5236" x2="22.6089" y2="40.3108">
			<stop  offset="0" style="stop-color:#00BA5C"/>
			<stop  offset="1" style="stop-color:#008896"/>
		</linearGradient>
		<path class="st1" d="M6.7,6.8v33.3h31.8V6.8h-7.9v16.7l-2.4-1.8l-0.6-0.6l-3.1,2.4V6.8H6.7z M23.6,7.7l0,17.6l0,0V7.7z M7.6,18.5
			V7.7h0L7.6,18.5z M27.6,23.5l3.4,2.6l0.5,0.3l1-0.5V8.6h4.1v29.6H8.6l0-29.6h14v17.3l1.1,0.5L27.6,23.5z"/>
	</g>
	<linearGradient id="SVGID_5_" gradientUnits="userSpaceOnUse" x1="22.6089" y1="43.86" x2="22.6089" y2="45.86">
		<stop  offset="0" style="stop-color:#00BA5C"/>
		<stop  offset="1" style="stop-color:#008896"/>
	</linearGradient>
	<line class="st2" x1="6.7" y1="44.9" x2="38.5" y2="44.9"/>
</g>
</svg>
