<svg id="Capa_1" data-name="Capa 1" xmlns="http://www.w3.org/2000/svg" xmlns:xlink="http://www.w3.org/1999/xlink" viewBox="0 0 35.6 50.3"><defs><linearGradient id="Degradado_sin_nombre_6" x1="0.13" y1="25.18" x2="35.47" y2="25.18" gradientUnits="userSpaceOnUse"><stop offset="0" stop-color="#00ba5c"/><stop offset="1" stop-color="#008896"/></linearGradient></defs><path d="M24,24.17a12.83,12.83,0,1,0-12.34,0,17.12,17.12,0,0,0-11.5,16V50.27H35.47V40.15A17.12,17.12,0,0,0,24,24.17ZM9,12.92a8.83,8.83,0,1,1,8.83,8.83A8.84,8.84,0,0,1,9,12.92Zm22.5,33.35H4.13V40.15c0-7.21,6.13-13.08,13.67-13.08s13.67,5.87,13.67,13.08Z" style="fill:url(#Degradado_sin_nombre_6)"/></svg>