<svg xmlns="http://www.w3.org/2000/svg" xmlns:xlink="http://www.w3.org/1999/xlink" viewBox="0 0 44.7 44.7"><defs><clipPath id="clip-path"><path d="M16.3,28.9l2.15-6.44,4.29,4.3L16.3,28.9m-4.49,4.5L28,28,17.21,17.21,11.81,33.4Z" style="fill:#1c2129"/></clipPath><clipPath id="clip-path-2"><polygon points="33.4 11.81 28 28 17.21 17.21 33.4 11.81" style="fill:#1c2129"/></clipPath></defs><g id="Capa_2" data-name="Capa 2"><g id="Capa_1-2" data-name="Capa 1"><path d="M22.35,44.7A22.35,22.35,0,1,1,44.7,22.35,22.38,22.38,0,0,1,22.35,44.7Zm0-38.6A16.25,16.25,0,1,0,38.6,22.35,16.27,16.27,0,0,0,22.35,6.1Z" style="fill:#1c2129"/><path d="M16.3,28.9l2.15-6.44,4.29,4.3L16.3,28.9m-4.49,4.5L28,28,17.21,17.21,11.81,33.4Z" style="fill:#1c2129"/><g style="clip-path:url(#clip-path)"><polygon points="11.81 33.4 20.83 35.17 17.2 38.79 11.81 33.4" style="fill:#1c2129"/><polygon points="11.41 32.99 11.42 32.91 21.17 34.83 20.83 35.17 11.81 33.4 11.41 32.99" style="fill:#1c2129"/><polygon points="11.42 32.91 11.5 32.51 21.51 34.48 21.17 34.83 11.42 32.91" style="fill:#1c2129"/><polygon points="11.5 32.51 11.58 32.12 21.86 34.14 21.51 34.48 11.5 32.51" style="fill:#1c2129"/><polygon points="11.58 32.12 11.66 31.72 22.2 33.8 21.86 34.14 11.58 32.12" style="fill:#1c2129"/><polygon points="11.66 31.72 11.73 31.33 22.54 33.45 22.2 33.8 11.66 31.72" style="fill:#1c2129"/><polygon points="11.73 31.33 11.81 30.93 22.89 33.11 22.54 33.45 11.73 31.33" style="fill:#1c2129"/><polygon points="11.81 30.93 11.89 30.54 23.23 32.77 22.89 33.11 11.81 30.93" style="fill:#1c2129"/><polygon points="11.89 30.54 11.97 30.14 23.57 32.42 23.23 32.77 11.89 30.54" style="fill:#1c2129"/><polygon points="11.97 30.14 12.04 29.75 23.91 32.08 23.57 32.42 11.97 30.14" style="fill:#1c2129"/><polygon points="12.04 29.75 12.12 29.35 24.26 31.74 23.91 32.08 12.04 29.75" style="fill:#1c2129"/><polygon points="12.12 29.35 12.2 28.96 24.6 31.39 24.26 31.74 12.12 29.35" style="fill:#1c2129"/><polygon points="12.2 28.96 12.28 28.56 24.94 31.05 24.6 31.39 12.2 28.96" style="fill:#1c2129"/><polygon points="12.28 28.56 12.36 28.17 25.29 30.71 24.94 31.05 12.28 28.56" style="fill:#1c2129"/><polygon points="12.36 28.17 12.43 27.77 25.63 30.37 25.29 30.71 12.36 28.17" style="fill:#1c2129"/><polygon points="12.43 27.77 12.51 27.38 25.97 30.02 25.63 30.37 12.43 27.77" style="fill:#1c2129"/><polygon points="12.51 27.38 12.59 26.98 26.32 29.68 25.97 30.02 12.51 27.38" style="fill:#1c2129"/><polygon points="12.59 26.98 12.67 26.59 26.66 29.34 26.32 29.68 12.59 26.98" style="fill:#1c2129"/><polygon points="12.67 26.59 12.74 26.19 27 28.99 26.66 29.34 12.67 26.59" style="fill:#1c2129"/><polygon points="12.74 26.19 12.82 25.79 27.34 28.65 27 28.99 12.74 26.19" style="fill:#1c2129"/><polygon points="12.82 25.79 12.9 25.4 27.69 28.31 27.34 28.65 12.82 25.79" style="fill:#1c2129"/><polygon points="12.9 25.4 12.98 25 27.95 27.95 28 28 27.69 28.31 12.9 25.4" style="fill:#1c2129"/><polygon points="12.98 25 13.05 24.61 27.44 27.44 27.95 27.95 12.98 25" style="fill:#1c2129"/><polygon points="13.05 24.61 13.13 24.21 26.93 26.93 27.44 27.44 13.05 24.61" style="fill:#1c2129"/><polygon points="13.13 24.21 13.21 23.82 26.41 26.41 26.93 26.93 13.13 24.21" style="fill:#1c2129"/><polygon points="13.21 23.82 13.29 23.42 25.9 25.9 26.41 26.41 13.21 23.82" style="fill:#1c2129"/><polygon points="13.29 23.42 13.37 23.03 25.39 25.39 25.9 25.9 13.29 23.42" style="fill:#1c2129"/><polygon points="13.37 23.03 13.44 22.63 24.88 24.88 25.39 25.39 13.37 23.03" style="fill:#1c2129"/><polygon points="13.44 22.63 13.52 22.24 24.37 24.37 24.88 24.88 13.44 22.63" style="fill:#1c2129"/><polygon points="13.52 22.24 13.6 21.84 23.86 23.86 24.37 24.37 13.52 22.24" style="fill:#1c2129"/><polygon points="13.6 21.84 13.68 21.45 23.35 23.35 23.86 23.86 13.6 21.84" style="fill:#1c2129"/><polygon points="13.68 21.45 13.75 21.05 22.84 22.84 23.35 23.35 13.68 21.45" style="fill:#1c2129"/><polygon points="13.75 21.05 13.83 20.66 22.33 22.33 22.84 22.84 13.75 21.05" style="fill:#1c2129"/><polygon points="13.83 20.66 13.85 20.57 14.12 20.3 21.82 21.82 22.33 22.33 13.83 20.66" style="fill:#1c2129"/><polygon points="14.46 19.96 21.3 21.3 21.82 21.82 14.12 20.3 14.46 19.96" style="fill:#1c2129"/><polygon points="14.8 19.61 20.79 20.79 21.3 21.3 14.46 19.96 14.8 19.61" style="fill:#1c2129"/><polygon points="15.14 19.27 20.28 20.28 20.79 20.79 14.8 19.61 15.14 19.27" style="fill:#1c2129"/><polygon points="15.49 18.93 19.77 19.77 20.28 20.28 15.14 19.27 15.49 18.93" style="fill:#1c2129"/><polygon points="15.83 18.59 19.26 19.26 19.77 19.77 15.49 18.93 15.83 18.59" style="fill:#1c2129"/><polygon points="16.17 18.24 18.75 18.75 19.26 19.26 15.83 18.59 16.17 18.24" style="fill:#1c2129"/><polygon points="16.52 17.9 18.24 18.24 18.75 18.75 16.17 18.24 16.52 17.9" style="fill:#1c2129"/><polygon points="16.86 17.56 17.73 17.73 18.24 18.24 16.52 17.9 16.86 17.56" style="fill:#1c2129"/><polygon points="17.2 17.21 17.21 17.21 17.73 17.73 16.86 17.56 17.2 17.21" style="fill:#1c2129"/><polygon points="17.21 17.21 17.2 17.21 17.21 17.21 17.21 17.21" style="fill:#1c2129"/><polygon points="18.39 31 18.48 31.01 18.45 31.05 18.39 31" style="fill:#1c2129"/><polygon points="17.88 30.48 18.83 30.67 18.48 31.01 18.39 31 17.88 30.48" style="fill:#1c2129"/><polygon points="17.37 29.97 19.17 30.33 18.83 30.67 17.88 30.48 17.37 29.97" style="fill:#1c2129"/><polygon points="16.86 29.46 19.51 29.98 19.17 30.33 17.37 29.97 16.86 29.46" style="fill:#1c2129"/><polygon points="16.35 28.95 19.86 29.64 19.51 29.98 16.86 29.46 16.35 28.95" style="fill:#1c2129"/><polygon points="15.9 28.5 15.91 28.45 20.2 29.3 19.86 29.64 16.35 28.95 15.9 28.5" style="fill:#1c2129"/><polygon points="15.91 28.45 15.98 28.06 20.54 28.95 20.2 29.3 15.91 28.45" style="fill:#1c2129"/><polygon points="15.98 28.06 16.06 27.66 20.89 28.61 20.54 28.95 15.98 28.06" style="fill:#1c2129"/><polygon points="16.06 27.66 16.14 27.27 21.23 28.27 20.89 28.61 16.06 27.66" style="fill:#1c2129"/><polygon points="16.14 27.27 16.22 26.87 21.57 27.93 21.23 28.27 16.14 27.27" style="fill:#1c2129"/><polygon points="16.22 26.87 16.3 26.48 21.91 27.58 21.57 27.93 16.22 26.87" style="fill:#1c2129"/><polygon points="16.3 26.48 16.37 26.08 22.26 27.24 21.91 27.58 16.3 26.48" style="fill:#1c2129"/><polygon points="16.37 26.08 16.45 25.69 22.6 26.9 22.26 27.24 16.37 26.08" style="fill:#1c2129"/><polygon points="16.45 25.69 16.53 25.29 22.44 26.45 22.74 26.76 22.6 26.9 16.45 25.69" style="fill:#1c2129"/><polygon points="16.53 25.29 16.61 24.9 21.93 25.94 22.44 26.45 16.53 25.29" style="fill:#1c2129"/><polygon points="16.61 24.9 16.68 24.5 21.41 25.43 21.93 25.94 16.61 24.9" style="fill:#1c2129"/><polygon points="16.68 24.5 16.75 24.16 16.8 24.11 20.9 24.92 21.41 25.43 16.68 24.5" style="fill:#1c2129"/><polygon points="17.14 23.77 20.39 24.41 20.9 24.92 16.8 24.11 17.14 23.77" style="fill:#1c2129"/><polygon points="17.49 23.43 19.88 23.9 20.39 24.41 17.14 23.77 17.49 23.43" style="fill:#1c2129"/><polygon points="17.83 23.08 19.37 23.39 19.88 23.9 17.49 23.43 17.83 23.08" style="fill:#1c2129"/><polygon points="18.17 22.74 18.86 22.88 19.37 23.39 17.83 23.08 18.17 22.74" style="fill:#1c2129"/><polygon points="18.86 22.88 18.17 22.74 18.45 22.46 18.86 22.88" style="fill:#1c2129"/></g><polygon points="33.4 11.81 28 28 17.21 17.21 33.4 11.81" style="fill:#1c2129"/><g style="clip-path:url(#clip-path-2)"><polygon points="35.17 20.83 33.4 11.81 38.79 17.2 35.17 20.83" style="fill:#1c2129"/><polygon points="34.83 21.17 32.91 11.42 32.99 11.41 33.4 11.81 35.17 20.83 34.83 21.17" style="fill:#1c2129"/><polygon points="34.48 21.51 32.51 11.5 32.91 11.42 34.83 21.17 34.48 21.51" style="fill:#1c2129"/><polygon points="34.14 21.86 32.12 11.58 32.51 11.5 34.48 21.51 34.14 21.86" style="fill:#1c2129"/><polygon points="33.8 22.2 31.72 11.66 32.12 11.58 34.14 21.86 33.8 22.2" style="fill:#1c2129"/><polygon points="33.45 22.54 31.33 11.73 31.72 11.66 33.8 22.2 33.45 22.54" style="fill:#1c2129"/><polygon points="33.11 22.89 30.93 11.81 31.33 11.73 33.45 22.54 33.11 22.89" style="fill:#1c2129"/><polygon points="32.77 23.23 30.54 11.89 30.93 11.81 33.11 22.89 32.77 23.23" style="fill:#1c2129"/><polygon points="32.42 23.57 30.14 11.97 30.54 11.89 32.77 23.23 32.42 23.57" style="fill:#1c2129"/><polygon points="32.08 23.91 29.75 12.04 30.14 11.97 32.42 23.57 32.08 23.91" style="fill:#1c2129"/><polygon points="31.74 24.26 29.35 12.12 29.75 12.04 32.08 23.91 31.74 24.26" style="fill:#1c2129"/><polygon points="31.39 24.6 28.96 12.2 29.35 12.12 31.74 24.26 31.39 24.6" style="fill:#1c2129"/><polygon points="31.05 24.94 28.56 12.28 28.96 12.2 31.39 24.6 31.05 24.94" style="fill:#1c2129"/><polygon points="30.71 25.29 28.17 12.36 28.56 12.28 31.05 24.94 30.71 25.29" style="fill:#1c2129"/><polygon points="30.37 25.63 27.77 12.43 28.17 12.36 30.71 25.29 30.37 25.63" style="fill:#1c2129"/><polygon points="30.02 25.97 27.38 12.51 27.77 12.43 30.37 25.63 30.02 25.97" style="fill:#1c2129"/><polygon points="29.68 26.32 26.98 12.59 27.38 12.51 30.02 25.97 29.68 26.32" style="fill:#1c2129"/><polygon points="29.34 26.66 26.59 12.67 26.98 12.59 29.68 26.32 29.34 26.66" style="fill:#1c2129"/><polygon points="28.99 27 26.19 12.74 26.59 12.67 29.34 26.66 28.99 27" style="fill:#1c2129"/><polygon points="28.65 27.34 25.79 12.82 26.19 12.74 28.99 27 28.65 27.34" style="fill:#1c2129"/><polygon points="28.31 27.69 25.4 12.9 25.79 12.82 28.65 27.34 28.31 27.69" style="fill:#1c2129"/><polygon points="27.95 27.95 25 12.98 25.4 12.9 28.31 27.69 28 28 27.95 27.95" style="fill:#1c2129"/><polygon points="27.44 27.44 24.61 13.05 25 12.98 27.95 27.95 27.44 27.44" style="fill:#1c2129"/><polygon points="26.93 26.93 24.21 13.13 24.61 13.05 27.44 27.44 26.93 26.93" style="fill:#1c2129"/><polygon points="26.41 26.41 23.82 13.21 24.21 13.13 26.93 26.93 26.41 26.41" style="fill:#1c2129"/><polygon points="25.9 25.9 23.42 13.29 23.82 13.21 26.41 26.41 25.9 25.9" style="fill:#1c2129"/><polygon points="25.39 25.39 23.03 13.37 23.42 13.29 25.9 25.9 25.39 25.39" style="fill:#1c2129"/><polygon points="24.88 24.88 22.63 13.44 23.03 13.37 25.39 25.39 24.88 24.88" style="fill:#1c2129"/><polygon points="24.37 24.37 22.24 13.52 22.63 13.44 24.88 24.88 24.37 24.37" style="fill:#1c2129"/><polygon points="23.86 23.86 21.84 13.6 22.24 13.52 24.37 24.37 23.86 23.86" style="fill:#1c2129"/><polygon points="23.35 23.35 21.45 13.68 21.84 13.6 23.86 23.86 23.35 23.35" style="fill:#1c2129"/><polygon points="22.84 22.84 21.05 13.75 21.45 13.68 23.35 23.35 22.84 22.84" style="fill:#1c2129"/><polygon points="22.33 22.33 20.66 13.83 21.05 13.75 22.84 22.84 22.33 22.33" style="fill:#1c2129"/><polygon points="21.82 21.82 20.3 14.12 20.57 13.85 20.66 13.83 22.33 22.33 21.82 21.82" style="fill:#1c2129"/><polygon points="21.3 21.3 19.96 14.46 20.3 14.12 21.82 21.82 21.3 21.3" style="fill:#1c2129"/><polygon points="20.79 20.79 19.61 14.8 19.96 14.46 21.3 21.3 20.79 20.79" style="fill:#1c2129"/><polygon points="20.28 20.28 19.27 15.14 19.61 14.8 20.79 20.79 20.28 20.28" style="fill:#1c2129"/><polygon points="19.77 19.77 18.93 15.49 19.27 15.14 20.28 20.28 19.77 19.77" style="fill:#1c2129"/><polygon points="19.26 19.26 18.59 15.83 18.93 15.49 19.77 19.77 19.26 19.26" style="fill:#1c2129"/><polygon points="18.75 18.75 18.24 16.17 18.59 15.83 19.26 19.26 18.75 18.75" style="fill:#1c2129"/><polygon points="18.24 18.24 17.9 16.52 18.24 16.17 18.75 18.75 18.24 18.24" style="fill:#1c2129"/><polygon points="17.73 17.73 17.56 16.86 17.9 16.52 18.24 18.24 17.73 17.73" style="fill:#1c2129"/><polygon points="17.21 17.21 17.21 17.2 17.56 16.86 17.73 17.73 17.21 17.21" style="fill:#1c2129"/><polygon points="17.21 17.2 17.21 17.21 17.21 17.21 17.21 17.2" style="fill:#1c2129"/></g></g></g></svg>