<?xml version="1.0" encoding="utf-8"?>
<!-- Generator: Adobe Illustrator 25.0.1, SVG Export Plug-In . SVG Version: 6.00 Build 0)  -->
<svg version="1.1" id="Capa_1" xmlns="http://www.w3.org/2000/svg" xmlns:xlink="http://www.w3.org/1999/xlink" x="0px" y="0px"
	 viewBox="0 0 36.8 33.8" style="enable-background:new 0 0 36.8 33.8;" xml:space="preserve">
<style type="text/css">
	.st0{fill:url(#SVGID_1_);}
	.st1{opacity:0.4;fill:#FFFFFF;enable-background:new    ;}
</style>
<g id="Capa_2_1_">
	<g id="Capa_1-2">
		
			<linearGradient id="SVGID_1_" gradientUnits="userSpaceOnUse" x1="17.8351" y1="249.7328" x2="20.4652" y2="283.9839" gradientTransform="matrix(1 0 0 1 -0.21 -250.38)">
			<stop  offset="0" style="stop-color:#00BA5C"/>
			<stop  offset="1" style="stop-color:#008896"/>
		</linearGradient>
		<path class="st0" d="M10.3,4.1c2.3,0,4.5,1.2,5.7,3.2l2.4,4l2.4-4c1.2-2,3.4-3.2,5.7-3.2c3,0,6.1,1.9,6.1,6
			c0,4.6-6,10.4-12.8,17.2l-1.4,1.4l-1.5-1.4C10.1,20.5,4.2,14.7,4.2,10.1C4.2,6,7.4,4.1,10.3,4.1 M9.6,0C4.8,0,0,3.3,0,9.5
			C0,16.6,8.5,24,18.4,33.8C28.3,24,36.8,16.6,36.8,9.5c0-6.2-4.7-9.5-9.6-9.5c-3.6,0-7,1.9-8.8,5C16.6,1.9,13.3,0,9.6,0z"/>
	</g>
</g>
<path class="st1" d="M10.3,4.1c2.3,0,4.5,1.2,5.7,3.2l2.4,4l2.4-4c1.2-2,3.4-3.2,5.7-3.2c3,0,6.1,1.9,6.1,6c0,4.6-6,10.4-12.8,17.2
	l-1.4,1.4l-1.5-1.4C10.1,20.5,4.2,14.7,4.2,10.1C4.2,6,7.4,4.1,10.3,4.1"/>
</svg>
