<svg xmlns="http://www.w3.org/2000/svg" viewBox="0 0 22.33 43.88"><g id="Capa_2" data-name="Capa 2"><g id="Capa_1-2" data-name="Capa 1"><path d="M12.84,26.4a3.28,3.28,0,0,0,3.26,3.41h1.11L17,41.14a2.68,2.68,0,0,0,2.67,2.74,2.72,2.72,0,0,0,2.67-2.74L22,1.06A1,1,0,0,0,20.7,0,7.22,7.22,0,0,0,15.36,4.4a31.65,31.65,0,0,0-2.22,9.85Z" style="fill:#1c2129"/><path d="M10.52.09A1.17,1.17,0,0,0,9.33,1.27v9.86a.5.5,0,0,1-.51.51H7.56A.5.5,0,0,1,7,11.13V1.27a1.19,1.19,0,0,0-2.37,0v9.86a.5.5,0,0,1-.52.51H2.89a.5.5,0,0,1-.52-.51V1.27A1.17,1.17,0,0,0,1.19.09,1.17,1.17,0,0,0,0,1.27V13.2a4,4,0,0,0,3.48,3.93L3.11,41.06A2.72,2.72,0,0,0,5.78,43.8a2.68,2.68,0,0,0,2.67-2.74L8.08,17.13a3.89,3.89,0,0,0,3.48-3.93V1.27A1.06,1.06,0,0,0,10.52.09Z" style="fill:#1c2129"/></g></g></svg>