<svg id="Capa_1" data-name="Capa 1" xmlns="http://www.w3.org/2000/svg" viewBox="0 0 108.3 189.55"><path d="M58.11,179.24V132.35h-5v47.22a7.1,7.1,0,0,1-7.1,7.1h0v1.15H65.54v-1.15h0A7.43,7.43,0,0,1,58.11,179.24Z" style="fill:#dadada"/><circle cx="54.15" cy="54.15" r="54.15" style="fill:#f5f5f7"/><path d="M31.28,52.2a.6.6,0,0,1-.44-.18.59.59,0,0,1-.18-.44V43.46a.58.58,0,0,1,.18-.45.6.6,0,0,1,.44-.18h2.16a3.32,3.32,0,0,1,1.6.38,2.8,2.8,0,0,1,1.09,1,3,3,0,0,1,.39,1.53A2.64,2.64,0,0,1,35,48.23a3.43,3.43,0,0,1-1.6.36H31.91v3a.59.59,0,0,1-.18.44A.58.58,0,0,1,31.28,52.2Zm.63-4.76h1.53a2.17,2.17,0,0,0,1-.21,1.64,1.64,0,0,0,.66-.59,1.57,1.57,0,0,0,.24-.86,1.79,1.79,0,0,0-.24-.93,1.69,1.69,0,0,0-.66-.64,2.06,2.06,0,0,0-1-.23H31.91Zm4.35,4.76a.6.6,0,0,1-.3-.07.65.65,0,0,1-.24-.23l-2.16-3.48,1.22-.34,2,3.16a.62.62,0,0,1,.06.66A.55.55,0,0,1,36.26,52.2Z" style="fill:#c6c6c6"/><path d="M41.21,52.25a3.62,3.62,0,0,1-1.77-.42,3.12,3.12,0,0,1-1.21-1.18,3.26,3.26,0,0,1-.44-1.72,3.61,3.61,0,0,1,.41-1.74A3,3,0,0,1,39.35,46,3.23,3.23,0,0,1,41,45.59a3,3,0,0,1,1.61.42,2.63,2.63,0,0,1,1,1.14A3.7,3.7,0,0,1,44,48.82a.53.53,0,0,1-.16.38.55.55,0,0,1-.4.15H38.63v-1h4.8l-.49.33a2.63,2.63,0,0,0-.24-1.07,1.77,1.77,0,0,0-1.67-1,2.17,2.17,0,0,0-1.17.3,1.92,1.92,0,0,0-.74.83,2.62,2.62,0,0,0-.25,1.18,2.26,2.26,0,0,0,.3,1.17,2.11,2.11,0,0,0,.83.82,2.39,2.39,0,0,0,1.21.3,2.58,2.58,0,0,0,1.39-.46.7.7,0,0,1,.39-.13.5.5,0,0,1,.37.12.59.59,0,0,1,.21.4.41.41,0,0,1-.19.37,3.32,3.32,0,0,1-1,.53A3.82,3.82,0,0,1,41.21,52.25ZM41,44.61a.57.57,0,0,1-.44-.18.57.57,0,0,1-.18-.43.56.56,0,0,1,.15-.41l1.17-1.18a.6.6,0,0,1,.44-.18.57.57,0,0,1,.44.18.64.64,0,0,1,.17.45.54.54,0,0,1,0,.22.44.44,0,0,1-.13.2l-1.16,1.16A.61.61,0,0,1,41,44.61Z" style="fill:#c6c6c6"/><path d="M48,52.25A4.31,4.31,0,0,1,46.41,52a2.94,2.94,0,0,1-1.11-.65.52.52,0,0,1-.15-.44.59.59,0,0,1,.23-.4.62.62,0,0,1,.48-.16.65.65,0,0,1,.4.21,1.82,1.82,0,0,0,.65.42,2.35,2.35,0,0,0,1,.2A2,2,0,0,0,49,50.94a.67.67,0,0,0,.37-.58.73.73,0,0,0-.34-.63,3.26,3.26,0,0,0-1.29-.43A3.73,3.73,0,0,1,46,48.58a1.49,1.49,0,0,1-.55-1.18,1.47,1.47,0,0,1,.36-1,2.17,2.17,0,0,1,.92-.6,3.61,3.61,0,0,1,1.18-.2,3.8,3.8,0,0,1,1.4.25,2.3,2.3,0,0,1,1,.7.52.52,0,0,1,.16.4.51.51,0,0,1-.2.36.64.64,0,0,1-.46.08.8.8,0,0,1-.44-.22,1.64,1.64,0,0,0-.65-.39,2.78,2.78,0,0,0-.81-.11,2,2,0,0,0-.89.18.57.57,0,0,0-.36.53.68.68,0,0,0,.11.39,1,1,0,0,0,.45.31,6,6,0,0,0,1,.27,5,5,0,0,1,1.42.46,1.79,1.79,0,0,1,.75.64,1.47,1.47,0,0,1,.23.84,1.83,1.83,0,0,1-.29,1,2,2,0,0,1-.86.71A3.55,3.55,0,0,1,48,52.25Z" style="fill:#c6c6c6"/><path d="M55.18,52.25a3.62,3.62,0,0,1-1.77-.42,3.22,3.22,0,0,1-1.22-1.18,3.35,3.35,0,0,1-.43-1.72,3.5,3.5,0,0,1,.41-1.74A3,3,0,0,1,53.32,46,3.18,3.18,0,0,1,55,45.59a2.94,2.94,0,0,1,1.6.42,2.65,2.65,0,0,1,1,1.14A3.7,3.7,0,0,1,58,48.82a.52.52,0,0,1-.15.38.57.57,0,0,1-.4.15H52.6v-1h4.79l-.49.33a2.63,2.63,0,0,0-.24-1.07A1.74,1.74,0,0,0,56,46.9a1.9,1.9,0,0,0-1-.28,2.17,2.17,0,0,0-1.17.3,1.92,1.92,0,0,0-.74.83,2.62,2.62,0,0,0-.25,1.18,2.17,2.17,0,0,0,.3,1.17,2.09,2.09,0,0,0,.82.82,2.42,2.42,0,0,0,1.22.3,2.36,2.36,0,0,0,.76-.14,2.31,2.31,0,0,0,.63-.32.7.7,0,0,1,.39-.13.47.47,0,0,1,.36.12.56.56,0,0,1,.22.4.43.43,0,0,1-.19.37,3.26,3.26,0,0,1-1,.53A3.76,3.76,0,0,1,55.18,52.25Z" style="fill:#c6c6c6"/><path d="M60.14,52.2a.6.6,0,0,1-.44-.15.58.58,0,0,1-.16-.45V46.24a.55.55,0,0,1,.6-.6.53.53,0,0,1,.6.6V51.6a.63.63,0,0,1-.15.45A.61.61,0,0,1,60.14,52.2Zm0-4.1a2.45,2.45,0,0,1,.35-1.29,2.64,2.64,0,0,1,2.28-1.24,2,2,0,0,1,1.07.23.49.49,0,0,1,.27.56.44.44,0,0,1-.14.26.38.38,0,0,1-.23.11.72.72,0,0,1-.29,0,3.39,3.39,0,0,0-1.38,0,1.76,1.76,0,0,0-1,.49,1.23,1.23,0,0,0-.36.91Z" style="fill:#c6c6c6"/><path d="M67.59,52.19A.62.62,0,0,1,67,51.8l-2.54-5.37a.44.44,0,0,1,0-.4.6.6,0,0,1,.3-.31.52.52,0,0,1,.42,0,.6.6,0,0,1,.32.27l2.37,5.13h-.58L69.65,46a.56.56,0,0,1,.33-.27.59.59,0,0,1,.45,0,.51.51,0,0,1,.28.3.53.53,0,0,1,0,.41L68.15,51.8A.59.59,0,0,1,67.59,52.19Z" style="fill:#c6c6c6"/><path d="M74.79,52.25A3.67,3.67,0,0,1,73,51.83a3.19,3.19,0,0,1-1.21-1.18,3.36,3.36,0,0,1-.44-1.72,3.5,3.5,0,0,1,.42-1.74A3,3,0,0,1,72.93,46a3.23,3.23,0,0,1,1.68-.43,3,3,0,0,1,1.61.42,2.65,2.65,0,0,1,1,1.14,3.83,3.83,0,0,1,.35,1.67.52.52,0,0,1-.15.38.57.57,0,0,1-.4.15H72.21v-1H77l-.49.33a2.63,2.63,0,0,0-.24-1.07,1.76,1.76,0,0,0-.65-.75,1.85,1.85,0,0,0-1-.28,2.21,2.21,0,0,0-1.17.3,1.9,1.9,0,0,0-.73.83,2.63,2.63,0,0,0-.26,1.18,2.26,2.26,0,0,0,.3,1.17,2.18,2.18,0,0,0,.83.82,2.41,2.41,0,0,0,1.21.3,2.37,2.37,0,0,0,.77-.14,2.31,2.31,0,0,0,.63-.32.7.7,0,0,1,.39-.13.47.47,0,0,1,.36.12.56.56,0,0,1,.22.4.43.43,0,0,1-.19.37,3.38,3.38,0,0,1-1,.53A3.77,3.77,0,0,1,74.79,52.25Zm-.25-7.64a.6.6,0,0,1-.44-.18.65.65,0,0,1,0-.84l1.18-1.18a.58.58,0,0,1,.43-.18.6.6,0,0,1,.45.18.64.64,0,0,1,.16.45.78.78,0,0,1,0,.22.53.53,0,0,1-.13.2L75,44.44A.57.57,0,0,1,74.54,44.61Z" style="fill:#c6c6c6"/><path d="M54.14,6.8a40.82,40.82,0,0,0,0,81.64V100a3.79,3.79,0,0,0,6.66,2.47L85.32,74A40.82,40.82,0,0,0,54.14,6.8Zm7,71.84h0l-1.2.24-.32.06-1,.16-.56.07-.84.1-.84.06-.63,0c-.5,0-1,0-1.51,0A31.63,31.63,0,0,1,52.52,16.2h0c.52,0,1,0,1.56,0h.06c.53,0,1.05,0,1.57,0h0a31.63,31.63,0,0,1,5.39,62.44Z" style="fill:#c6c6c6"/><rect x="25.1" y="167.25" width="2.44" height="19.77" transform="translate(203.46 150.81) rotate(90)" style="fill:#dadada"/><path d="M15.22,144h2.44a0,0,0,0,1,0,0v44.34a1.22,1.22,0,0,1-1.22,1.22h0a1.22,1.22,0,0,1-1.22-1.22V144a0,0,0,0,1,0,0Z" style="fill:#ededed"/><path d="M34.23,144h2.44a0,0,0,0,1,0,0v44.34a1.22,1.22,0,0,1-1.22,1.22h0a1.22,1.22,0,0,1-1.22-1.22V144A0,0,0,0,1,34.23,144Z" style="fill:#ededed"/><path d="M23.2,137V112.29a4,4,0,0,0-4-4h0a4,4,0,0,0-4,4V145H35.06a3.6,3.6,0,0,0,3.6-3.6v-.78a3.6,3.6,0,0,0-3.6-3.6Z" style="fill:#c6c6c6"/><rect x="40.71" y="126.65" width="29.82" height="6.37" style="fill:#ededed"/><rect x="26.94" y="118.94" width="57.22" height="8.42" rx="4.21" style="fill:#c6c6c6"/><rect x="83.56" y="167.25" width="2.44" height="19.77" transform="translate(261.92 92.36) rotate(90)" style="fill:#dadada"/><path d="M94.67,144h0a1.22,1.22,0,0,1,1.22,1.22v44.34a0,0,0,0,1,0,0H93.45a0,0,0,0,1,0,0V145.21A1.22,1.22,0,0,1,94.67,144Z" transform="translate(189.33 333.54) rotate(-180)" style="fill:#ededed"/><path d="M75.66,144h0a1.22,1.22,0,0,1,1.22,1.22v44.34a0,0,0,0,1,0,0H74.44a0,0,0,0,1,0,0V145.21A1.22,1.22,0,0,1,75.66,144Z" transform="translate(151.31 333.54) rotate(-180)" style="fill:#ededed"/><path d="M87.9,137V112.29a4,4,0,0,1,4-4h0a4,4,0,0,1,4,4V145H76a3.6,3.6,0,0,1-3.6-3.6v-.78A3.6,3.6,0,0,1,76,137Z" style="fill:#c6c6c6"/></svg>