<svg xmlns="http://www.w3.org/2000/svg" viewBox="0 0 52.53 48.43"><path d="M30.48,7.45c.38-.41.73-.72,1-1.09.66-.85.5-1.54-.51-1.91A5.8,5.8,0,0,0,29,4c-1.62,0-3.24.11-4.86.23a3,3,0,0,0-1.17.43,1,1,0,0,0-.37,1.56,11.42,11.42,0,0,0,1,1.1l-2.22.43C11.68,9.59,8.6,17.44,9.77,24.42a1.42,1.42,0,0,1-.48,1.4,27.76,27.76,0,0,0-3.21,3.57,8.58,8.58,0,0,0-.64,9.15,19,19,0,0,0,5.32,6.39,3.36,3.36,0,0,1,.92,1.2A1.67,1.67,0,0,1,11,48a1.6,1.6,0,0,1-1.95.11C4.6,44.74,1.14,40.64.83,34.7c-.19-3.78,1.45-6.94,4-9.6a3.78,3.78,0,0,0,1.15-3,17.14,17.14,0,0,1,4.91-13A18.21,18.21,0,0,1,17.65,5a2.24,2.24,0,0,0,1-.77A10,10,0,0,1,27.3,0a9.54,9.54,0,0,1,8.35,4.41,1.75,1.75,0,0,0,.84.54A16.89,16.89,0,0,1,46,12.74a18,18,0,0,1,2.16,9.73,2.93,2.93,0,0,0,.93,2.39,13.82,13.82,0,0,1,4.17,8.41,12.9,12.9,0,0,1-1.49,7.24,22.13,22.13,0,0,1-6.37,7.43A1.82,1.82,0,1,1,43.26,45a19.44,19.44,0,0,0,5-5.61,9,9,0,0,0-.71-10.8,22.46,22.46,0,0,0-2.65-2.78,1.45,1.45,0,0,1-.5-1.48c.65-4.32,0-8.36-2.9-11.8a13.66,13.66,0,0,0-8.86-4.78Z" transform="translate(-0.82 0)" style="fill:#c70102"/><path d="M38.61,40.18c.46-.41.93-.8,1.39-1.22.65-.61,1.31-.67,1.82-.14a1.23,1.23,0,0,1-.19,1.83,17.66,17.66,0,0,1-8.08,4.47,20.55,20.55,0,0,1-13.84-1,10.72,10.72,0,0,1-3.85-2.7,5.89,5.89,0,0,1-.7-1,1.16,1.16,0,0,1,1.92-1.29C20.21,43,24.45,43.56,29,43.46c0,0,0,0,.05,0a33.19,33.19,0,0,1,.85-3.89A31.3,31.3,0,0,1,31.91,35a5.78,5.78,0,0,1,1.72-1.8,2.27,2.27,0,0,1,3.51.66,8.63,8.63,0,0,1,1.26,4.37c0,.63,0,1.27,0,1.91Z" transform="translate(-0.82 0)" style="fill:#c70102"/><path d="M26.28,22.41A9.6,9.6,0,0,1,23.57,29a5.06,5.06,0,0,1-7.52,0,9.3,9.3,0,0,1-2.57-5.46,11.11,11.11,0,0,1,.94-6.65,9.51,9.51,0,0,1,1.39-2.09,5.13,5.13,0,0,1,8,0C25.4,16.54,26.28,19,26.28,22.41ZM23.36,26.9c-.05.05,0,0,.05,0a6.48,6.48,0,0,0,.33-.57,10.07,10.07,0,0,0,.81-6.65,7.73,7.73,0,0,0-1.94-3.94,3.67,3.67,0,0,0-5.57,0,4.64,4.64,0,0,0-.82,1.05,9.86,9.86,0,0,0,0,10.1,5.13,5.13,0,0,0,.44.6,4.52,4.52,0,0,0-.08-1.07,6.28,6.28,0,0,1,1-4.52,2.65,2.65,0,0,1,4.62,0,4.37,4.37,0,0,1,.76,1.6C23.19,24.61,23.25,25.78,23.36,26.9Z" transform="translate(-0.82 0)" style="fill:#c70102"/><path d="M41.39,22.64a9.81,9.81,0,0,1-1.93,5.48c-2.5,3.42-6.56,3.41-9.07,0a11.37,11.37,0,0,1-.05-12.58C32.86,12,37,12,39.5,15.49a8.23,8.23,0,0,1,.69,1.14A12.1,12.1,0,0,1,41.39,22.64Zm-2.9,4.29c.07-.13.24-.37.37-.62a9.91,9.91,0,0,0,1-5.84,8.11,8.11,0,0,0-2-4.7,3.7,3.7,0,0,0-5.77,0,5,5,0,0,0-.72.94,9.92,9.92,0,0,0,0,10.12,6,6,0,0,0,.44.59,7.32,7.32,0,0,1,.79-5.36c1.3-2.09,3.59-2.1,4.92,0a3.67,3.67,0,0,1,.6,1.34C38.28,24.57,38.36,25.77,38.49,26.93Z" transform="translate(-0.82 0)" style="fill:#c70102"/></svg>