<svg xmlns="http://www.w3.org/2000/svg" xmlns:xlink="http://www.w3.org/1999/xlink" viewBox="0 0 52.99 48.9"><defs><linearGradient id="a" y1="24.19" x2="52.49" y2="24.19" gradientUnits="userSpaceOnUse"><stop offset="0" stop-color="#00ba5c"/><stop offset="1" stop-color="#008896"/></linearGradient><linearGradient id="b" x1="-0.25" y1="24.19" x2="52.74" y2="24.19" xlink:href="#a"/><linearGradient id="c" x1="14.19" y1="39.26" x2="41.32" y2="39.26" xlink:href="#a"/><linearGradient id="d" x1="13.94" y1="39.26" x2="41.57" y2="39.26" xlink:href="#a"/><linearGradient id="e" x1="12.51" y1="21.78" x2="25.46" y2="21.78" xlink:href="#a"/><linearGradient id="f" x1="12.26" y1="21.78" x2="25.71" y2="21.78" xlink:href="#a"/><linearGradient id="g" x1="27.65" y1="21.78" x2="40.59" y2="21.78" xlink:href="#a"/><linearGradient id="h" x1="27.4" y1="21.78" x2="40.84" y2="21.78" xlink:href="#a"/></defs><path d="M29.66,7.45a13.48,13.48,0,0,0,1-1.09c.66-.85.5-1.54-.51-1.91a5.83,5.83,0,0,0-2-.45c-1.62,0-3.24.11-4.86.23a3.06,3.06,0,0,0-1.17.43A1,1,0,0,0,21.63,6a1,1,0,0,0,.15.25,10.44,10.44,0,0,0,1,1.1l-2.22.43C10.86,9.59,7.78,17.44,9,24.42a1.41,1.41,0,0,1-.48,1.4,27.84,27.84,0,0,0-3.21,3.57,8.59,8.59,0,0,0-.64,9.15,19,19,0,0,0,5.32,6.39,3.39,3.39,0,0,1,.92,1.2A1.68,1.68,0,0,1,10.18,48a1.59,1.59,0,0,1-1.95.11C3.78,44.74.32,40.64,0,34.7c-.19-3.78,1.45-6.94,4-9.6a3.79,3.79,0,0,0,1.15-3,17.15,17.15,0,0,1,4.91-13A18.22,18.22,0,0,1,16.83,5a2.24,2.24,0,0,0,1-.77A10,10,0,0,1,26.48,0a9.53,9.53,0,0,1,8.35,4.41,1.68,1.68,0,0,0,.84.54,16.88,16.88,0,0,1,9.51,7.79,18,18,0,0,1,2.16,9.73,2.94,2.94,0,0,0,.93,2.39,13.84,13.84,0,0,1,4.17,8.41A12.92,12.92,0,0,1,51,40.51a22.13,22.13,0,0,1-6.37,7.43,1.82,1.82,0,1,1-2.27-2.84l.13-.1a19.44,19.44,0,0,0,5-5.61,9,9,0,0,0-.71-10.8,22.46,22.46,0,0,0-2.65-2.78,1.44,1.44,0,0,1-.5-1.48c.65-4.32,0-8.36-2.9-11.8a13.7,13.7,0,0,0-8.86-4.78Z" transform="translate(0.25 0.26)" style="stroke-miterlimit:10;stroke-width:0.5px;fill:url(#a);stroke:url(#b)"/><path d="M37.79,40.18c.46-.41.93-.8,1.39-1.22.65-.61,1.31-.67,1.82-.14a1.23,1.23,0,0,1-.08,1.74l-.11.09a17.7,17.7,0,0,1-8.08,4.47,20.55,20.55,0,0,1-13.84-1A10.72,10.72,0,0,1,15,41.42a5.79,5.79,0,0,1-.7-1,1.16,1.16,0,0,1,1.92-1.29c3.13,3.87,7.37,4.43,11.92,4.33h.05a34.58,34.58,0,0,1,.85-3.89,32,32,0,0,1,2-4.57,5.8,5.8,0,0,1,1.72-1.8,2.28,2.28,0,0,1,3.51.66,8.66,8.66,0,0,1,1.26,4.37v1.91Z" transform="translate(0.25 0.26)" style="stroke-miterlimit:10;stroke-width:0.5px;fill:url(#c);stroke:url(#d)"/><path d="M25.46,22.41A9.57,9.57,0,0,1,22.75,29a5.06,5.06,0,0,1-7.15.37,4.31,4.31,0,0,1-.37-.37,9.3,9.3,0,0,1-2.57-5.46,11.13,11.13,0,0,1,.94-6.65A9.51,9.51,0,0,1,15,14.8,5.13,5.13,0,0,1,22.2,14a5.36,5.36,0,0,1,.79.79C24.58,16.54,25.46,19,25.46,22.41ZM22.54,26.9c-.05.05,0,0,.05,0a5.3,5.3,0,0,0,.33-.57,10.06,10.06,0,0,0,.81-6.65,7.76,7.76,0,0,0-1.94-3.94,3.67,3.67,0,0,0-5.18-.39,3.59,3.59,0,0,0-.39.39,4.64,4.64,0,0,0-.82,1,9.84,9.84,0,0,0,0,10.1,5.13,5.13,0,0,0,.44.6,4.26,4.26,0,0,0-.08-1.07,6.28,6.28,0,0,1,1-4.52,2.64,2.64,0,0,1,3.61-1,2.72,2.72,0,0,1,1,1,4.37,4.37,0,0,1,.76,1.6A32.48,32.48,0,0,1,22.54,26.9Z" transform="translate(0.25 0.26)" style="stroke-miterlimit:10;stroke-width:0.5px;fill:url(#e);stroke:url(#f)"/><path d="M40.57,22.64a9.86,9.86,0,0,1-1.93,5.48c-2.5,3.42-6.56,3.41-9.07,0a11.36,11.36,0,0,1-.05-12.58C32,12,36.18,12,38.68,15.49a8.23,8.23,0,0,1,.69,1.14A12.13,12.13,0,0,1,40.57,22.64Zm-2.9,4.29c.07-.13.24-.37.37-.62a9.92,9.92,0,0,0,1-5.84,8.06,8.06,0,0,0-2-4.7,3.7,3.7,0,0,0-5.2-.57,3.84,3.84,0,0,0-.57.57,4.69,4.69,0,0,0-.72.94,9.92,9.92,0,0,0,0,10.12,5,5,0,0,0,.44.59,7.33,7.33,0,0,1,.79-5.36c1.3-2.09,3.59-2.1,4.92,0a3.68,3.68,0,0,1,.6,1.34C37.46,24.57,37.54,25.77,37.67,26.93Z" transform="translate(0.25 0.26)" style="stroke-miterlimit:10;stroke-width:0.5px;fill:url(#g);stroke:url(#h)"/></svg>