<?xml version="1.0" encoding="utf-8"?>
<!-- Generator: Adobe Illustrator 24.0.0, SVG Export Plug-In . SVG Version: 6.00 Build 0)  -->
<svg version="1.1" id="Capa_1" xmlns="http://www.w3.org/2000/svg" xmlns:xlink="http://www.w3.org/1999/xlink" x="0px" y="0px"
	 viewBox="0 0 874.38 874.38" style="enable-background:new 0 0 874.38 874.38;" xml:space="preserve">
<style type="text/css">
	.st0{fill:#84817C;}
	.st1{fill:#A09C95;}
	.st2{fill:#BD8D82;}
	.st3{fill:#E9E2D6;}
	.st4{fill:#D6D0C4;}
	.st5{fill:#696763;}
</style>
<g>
	<g>
		<g>
			<path class="st0" d="M189.02,430.6l-2.53,0.41c-3.71,0.61-7.25-1.93-7.86-5.64L148.33,240.5c-0.61-3.71,1.93-7.25,5.64-7.86
				l2.53-0.41c3.71-0.61,7.25,1.93,7.86,5.64l30.31,184.87C195.28,426.45,192.74,429.99,189.02,430.6z"/>
		</g>
		<g>
			
				<rect x="644.13" y="419.15" transform="matrix(-1 -1.224647e-16 1.224647e-16 -1 1324.7981 874.8485)" class="st1" width="36.54" height="36.54"/>
		</g>
		<g>
			
				<rect x="589.35" y="419.15" transform="matrix(-1 -1.224647e-16 1.224647e-16 -1 1236.3934 874.8485)" class="st0" width="57.7" height="36.54"/>
		</g>
		<g>
			<rect x="193.44" y="419.15" class="st1" width="36.54" height="36.54"/>
		</g>
		<g>
			<rect x="227.06" y="419.15" class="st0" width="57.7" height="36.54"/>
		</g>
		<g>
			<path class="st2" d="M295.16,630.8h-2.83c-4.16,0-7.56-3.4-7.56-7.56v-66.94c0-4.16,3.4-7.56,7.56-7.56h2.83
				c4.16,0,7.56,3.4,7.56,7.56v66.94C302.72,627.39,299.31,630.8,295.16,630.8z"/>
		</g>
		<g>
			<path class="st2" d="M581.79,630.8h-2.83c-4.16,0-7.56-3.4-7.56-7.56v-66.94c0-4.16,3.4-7.56,7.56-7.56h2.83
				c4.16,0,7.56,3.4,7.56,7.56v66.94C589.35,627.39,585.94,630.8,581.79,630.8z"/>
		</g>
		<g>
			<path class="st0" d="M350.09,628.52h-2.43c-3.56,0-6.48-2.92-6.48-6.48v-83.21c0-3.56,2.92-6.48,6.48-6.48h2.43
				c3.56,0,6.48,2.92,6.48,6.48v83.21C356.57,625.6,353.66,628.52,350.09,628.52z"/>
		</g>
		<g>
			<path class="st0" d="M294.95,628.52h-2.43c-3.56,0-6.48-2.92-6.48-6.48v-83.21c0-3.56,2.92-6.48,6.48-6.48h2.43
				c3.56,0,6.48,2.92,6.48,6.48v83.21C301.43,625.6,298.52,628.52,294.95,628.52z"/>
		</g>
		<g>
			<path class="st0" d="M581.58,628.52h-2.43c-3.56,0-6.48-2.92-6.48-6.48v-83.21c0-3.56,2.92-6.48,6.48-6.48h2.43
				c3.56,0,6.48,2.92,6.48,6.48v83.21C588.06,625.6,585.15,628.52,581.58,628.52z"/>
		</g>
		<g>
			<path class="st0" d="M529.61,628.52h-2.43c-3.56,0-6.48-2.92-6.48-6.48v-83.21c0-3.56,2.92-6.48,6.48-6.48h2.43
				c3.56,0,6.48,2.92,6.48,6.48v83.21C536.09,625.6,533.17,628.52,529.61,628.52z"/>
		</g>
		<g>
			<path class="st0" d="M601.95,309.73h-21.3c-0.74,0-1.46,0.15-2.13,0.42c4.43,1.41,7.7,6.29,7.7,12.11v49.91
				c0,5.82-3.27,10.7-7.7,12.11c0.67,0.27,1.38,0.42,2.13,0.42h21.3c3.7,0,6.7-3.65,6.7-8.14v-58.7
				C608.65,313.38,605.65,309.73,601.95,309.73z"/>
		</g>
		<g>
			<path class="st3" d="M573.01,376.58v-58.7c0-3.59,2.31-6.64,5.51-7.72c-1.01-0.27-2.06-0.42-3.16-0.42H277.95
				c-6.86,0-12.42,5.61-12.42,12.54v49.91c0,6.92,5.56,12.54,12.42,12.54h297.42c1.09,0,2.15-0.16,3.16-0.42
				C575.32,383.22,573.01,380.17,573.01,376.58z"/>
		</g>
		<g>
			<path class="st0" d="M587.66,372.18v-49.91c0-5.82-3.88-10.7-9.14-12.11c-3.16,1.08-5.44,4.13-5.44,7.72v58.7
				c0,3.59,2.28,6.64,5.44,7.72C583.78,382.88,587.66,378,587.66,372.18z"/>
		</g>
		<g>
			<path class="st1" d="M576.84,566.86c7.08,4.98,14.74,9.85,24.36,13.57h7.45V372.75H269.57v44.12h307.28V566.86z"/>
		</g>
		<g>
			<path class="st4" d="M576.84,566.86V416.87H269.57v163.56h4.5c25.92-10.54,39.89-36.76,80.26-36.76
				c37.5,0,45.16,36.76,78.03,36.76c46.47,0,46.68-36.76,88.34-36.76C547.56,543.67,560.75,555.54,576.84,566.86z"/>
		</g>
		<g>
			<path class="st0" d="M187.79,624.38h-2.56c-3.76,0-6.84-3.08-6.84-6.84l0-191.55c0-3.76,3.08-6.84,6.84-6.84h2.56
				c3.76,0,6.84,3.08,6.84,6.84l0,191.55C194.63,621.31,191.55,624.38,187.79,624.38z"/>
		</g>
		<g>
			<path class="st0" d="M685.58,430.6l2.53,0.41c3.71,0.61,7.25-1.93,7.86-5.64l30.31-184.87c0.61-3.71-1.93-7.25-5.64-7.86
				l-2.53-0.41c-3.71-0.61-7.25,1.93-7.86,5.64l-30.31,184.87C679.33,426.45,681.87,429.99,685.58,430.6z"/>
		</g>
		<g>
			<path class="st0" d="M686.82,624.38h2.56c3.76,0,6.84-3.08,6.84-6.84V425.99c0-3.76-3.08-6.84-6.84-6.84h-2.56
				c-3.76,0-6.84,3.08-6.84,6.84v191.55C679.98,621.31,683.06,624.38,686.82,624.38z"/>
		</g>
	</g>
	<g>
		<path class="st5" d="M437.3,874.62c-59.02,0-116.27-11.56-170.18-34.36c-52.06-22.02-98.82-53.54-138.96-93.69
			s-71.67-86.9-93.69-138.96C11.67,553.7,0.11,496.44,0.11,437.42c0-59.02,11.56-116.27,34.36-170.18
			c22.02-52.06,53.54-98.82,93.69-138.96s86.9-71.67,138.96-93.69C321.03,11.79,378.29,0.23,437.3,0.23s116.27,11.56,170.18,34.36
			c52.06,22.02,98.82,53.54,138.96,93.69s71.67,86.9,93.69,138.96c22.8,53.91,34.36,111.16,34.36,170.18
			c0,59.02-11.56,116.27-34.36,170.18c-22.02,52.06-53.54,98.82-93.69,138.96s-86.9,71.67-138.96,93.69
			C553.58,863.06,496.32,874.62,437.3,874.62z M437.3,21.23c-229.49,0-416.19,186.7-416.19,416.19
			c0,229.49,186.7,416.19,416.19,416.19s416.19-186.7,416.19-416.19C853.49,207.94,666.79,21.23,437.3,21.23z"/>
	</g>
	<g>
		<path class="st5" d="M250.68,749.98c-2.34,0-4.71-0.63-6.85-1.96c-6.1-3.79-7.97-11.81-4.18-17.9l357.96-575.67
			c3.79-6.1,11.81-7.97,17.9-4.18c6.1,3.79,7.97,11.81,4.18,17.9L261.74,743.84C259.27,747.8,255.03,749.98,250.68,749.98z"/>
	</g>
	<g>
		<path class="st5" d="M644.14,735.13c-4.02,0-7.98-1.86-10.53-5.36L219.47,159.68c-4.22-5.81-2.93-13.94,2.88-18.16
			c5.81-4.22,13.94-2.93,18.16,2.88l414.14,570.09c4.22,5.81,2.93,13.94-2.88,18.16C649.46,734.32,646.79,735.13,644.14,735.13z"/>
	</g>
</g>
</svg>
