<svg xmlns="http://www.w3.org/2000/svg" xmlns:xlink="http://www.w3.org/1999/xlink" viewBox="0 0 455.79 355"><defs><linearGradient id="Degradado_sin_nombre_39" x1="208.16" y1="8.07" x2="251.15" y2="219.86" gradientUnits="userSpaceOnUse"><stop offset="0" stop-color="#00ba5c"/><stop offset="1" stop-color="#008896"/></linearGradient><linearGradient id="Degradado_sin_nombre_39-2" x1="204.48" y1="29.43" x2="235.89" y2="184.19" xlink:href="#Degradado_sin_nombre_39"/><linearGradient id="Degradado_sin_nombre_39-3" x1="196.51" y1="10.44" x2="239.5" y2="222.23" xlink:href="#Degradado_sin_nombre_39"/><linearGradient id="Degradado_sin_nombre_39-4" x1="232.1" y1="257.37" x2="271.62" y2="369.09" xlink:href="#Degradado_sin_nombre_39"/></defs><g id="Capa_2" data-name="Capa 2"><g id="Capa_1-2" data-name="Capa 1"><circle cx="227.89" cy="119.77" r="119.77" style="fill:#f5f5f7"/><path d="M318.19,105.31a90.3,90.3,0,0,0-94.56-90.2c-46.26,2.13-83.8,39.67-85.93,85.93a90.29,90.29,0,0,0,90.19,94.56v25.56a8.39,8.39,0,0,0,14.74,5.47l54.2-63h-.06A89.85,89.85,0,0,0,318.19,105.31Zm-90.3,70.35a69.93,69.93,0,1,1,52.65-23.95l-29-29a20.5,20.5,0,0,0-3.16-24.87l-23-23a5.15,5.15,0,0,0-7.28,7.28l23,23a10.2,10.2,0,0,1-14.43,14.43l-23-23a5.15,5.15,0,1,0-7.29,7.29l23,23A20.54,20.54,0,0,0,244.27,130L273.21,159A69.58,69.58,0,0,1,227.89,175.66Z" style="fill:url(#Degradado_sin_nombre_39)"/><path d="M207.22,85.67a5.16,5.16,0,0,0,0,7.29l14.48,14.47a5.15,5.15,0,0,0,7.28-7.28L214.5,85.67A5.15,5.15,0,0,0,207.22,85.67Z" style="fill:url(#Degradado_sin_nombre_39-2)"/><path d="M175.14,105.11a50.78,50.78,0,0,1,75-44.64,5,5,0,0,0,4.77-8.77,60.75,60.75,0,0,0-70.46,97.77,5,5,0,1,0,6.82-7.29A50.28,50.28,0,0,1,175.14,105.11Z" style="fill:url(#Degradado_sin_nombre_39-3)"/><path d="M24.24,301.83a21.63,21.63,0,0,1,12,3.39,24.12,24.12,0,0,1,8.33,9.33,29.29,29.29,0,0,1,3.09,13.71,29.73,29.73,0,0,1-3.09,13.67,24.46,24.46,0,0,1-8.38,9.58A21,21,0,0,1,24.34,355a20,20,0,0,1-6.63-1.1,22.55,22.55,0,0,1-10.33-7.28,22.14,22.14,0,0,1-3.19-5.39L6,339.94v11.27a2.89,2.89,0,0,1-3,3,2.91,2.91,0,0,1-3-3V283.27a3,3,0,0,1,.8-2.14A2.84,2.84,0,0,1,3,280.28a2.89,2.89,0,0,1,3,3v33.42l-1.39-.8a18.34,18.34,0,0,1,2.94-5.63,22,22,0,0,1,4.54-4.44,20.76,20.76,0,0,1,5.69-2.94A20,20,0,0,1,24.24,301.83Zm-.5,5.58a16.77,16.77,0,0,0-9.47,2.7,18.53,18.53,0,0,0-6.44,7.38,23.83,23.83,0,0,0-2.34,10.77,24.58,24.58,0,0,0,2.34,10.83,18.67,18.67,0,0,0,6.44,7.58,16.57,16.57,0,0,0,9.47,2.74,16,16,0,0,0,9.33-2.79A19.56,19.56,0,0,0,39.5,339a23.82,23.82,0,0,0,2.4-10.73,23.33,23.33,0,0,0-2.4-10.77,19.06,19.06,0,0,0-6.43-7.38A16.38,16.38,0,0,0,23.74,307.41Z" style="fill:#f5f5f7"/><path d="M107.14,328.46a27.7,27.7,0,0,1-3.34,13.62,25,25,0,0,1-9,9.48,25.7,25.7,0,0,1-25.69,0A24.93,24.93,0,0,1,60,342.08a29.52,29.52,0,0,1,0-27.28,25.44,25.44,0,0,1,9.08-9.48,25.38,25.38,0,0,1,25.69,0,25.55,25.55,0,0,1,9,9.48A27.61,27.61,0,0,1,107.14,328.46Zm-6,0a22.93,22.93,0,0,0-2.49-10.82,19.28,19.28,0,0,0-6.83-7.48,18.21,18.21,0,0,0-9.93-2.75,18,18,0,0,0-9.83,2.75,19.71,19.71,0,0,0-6.88,7.48,22.48,22.48,0,0,0-2.54,10.82,22.21,22.21,0,0,0,2.54,10.78,19.86,19.86,0,0,0,6.88,7.43,18,18,0,0,0,9.83,2.74,18.21,18.21,0,0,0,9.93-2.74,19.42,19.42,0,0,0,6.83-7.43A22.65,22.65,0,0,0,101.15,328.46Z" style="fill:#f5f5f7"/><path d="M166.49,328.46a27.6,27.6,0,0,1-3.34,13.62,25,25,0,0,1-9,9.48,25.68,25.68,0,0,1-25.68,0,24.86,24.86,0,0,1-9.08-9.48,29.52,29.52,0,0,1,0-27.28,25.36,25.36,0,0,1,9.08-9.48,25.36,25.36,0,0,1,25.68,0,25.47,25.47,0,0,1,9,9.48A27.51,27.51,0,0,1,166.49,328.46Zm-6,0a22.81,22.81,0,0,0-2.5-10.82,19.28,19.28,0,0,0-6.83-7.48,18.17,18.17,0,0,0-9.93-2.75,18,18,0,0,0-9.82,2.75,19.63,19.63,0,0,0-6.88,7.48A22.49,22.49,0,0,0,122,328.46a22.22,22.22,0,0,0,2.55,10.78,19.78,19.78,0,0,0,6.88,7.43,18,18,0,0,0,9.82,2.74,18.16,18.16,0,0,0,9.93-2.74,19.42,19.42,0,0,0,6.83-7.43A22.54,22.54,0,0,0,160.51,328.46Z" style="fill:#f5f5f7"/><path d="M182.35,354a2.81,2.81,0,0,1-2.14-.9,2.91,2.91,0,0,1-.85-2.09V283.17a2.94,2.94,0,0,1,.85-2.09,3,3,0,0,1,4.29,0,3,3,0,0,1,.85,2.09V351a3,3,0,0,1-.85,2.09A2.83,2.83,0,0,1,182.35,354Zm33.92-51.17a2.71,2.71,0,0,1,2,.94,3,3,0,0,1,.9,2.05,3,3,0,0,1-1.1,2.29l-33.52,28.53-.3-7.08,29.93-25.74A2.74,2.74,0,0,1,216.27,302.83Zm.8,51.17a2.7,2.7,0,0,1-2.19-1.1l-22.75-24.14,4.49-4.09,22.55,24a3.39,3.39,0,0,1,.89,2.3A2.55,2.55,0,0,1,219,353.2,3.41,3.41,0,0,1,217.07,354Z" style="fill:#f5f5f7"/><path d="M312,303a2.8,2.8,0,0,1,2.14.89,3.07,3.07,0,0,1,.85,2.2V351a3.08,3.08,0,0,1-3,3,2.81,2.81,0,0,1-2.2-.9,3,3,0,0,1-.79-2.09V339.14l1.69-.8a11.93,11.93,0,0,1-1.55,5.69,20.55,20.55,0,0,1-4.23,5.38,21.61,21.61,0,0,1-6.34,4,20.1,20.1,0,0,1-7.93,1.55,21.45,21.45,0,0,1-12-3.49,24,24,0,0,1-8.38-9.58,30.09,30.09,0,0,1-3-13.67,29.29,29.29,0,0,1,3.09-13.71,23.92,23.92,0,0,1,8.38-9.33,22.44,22.44,0,0,1,19.9-1.9,21,21,0,0,1,6.53,4.09,19.47,19.47,0,0,1,4.39,5.94,15.83,15.83,0,0,1,1.6,6.93l-2.09-1.49V306.12a3.2,3.2,0,0,1,.79-2.2A2.8,2.8,0,0,1,312,303Zm-20.75,46.38a16.46,16.46,0,0,0,9.38-2.74,18.72,18.72,0,0,0,6.43-7.58,24.58,24.58,0,0,0,2.34-10.83,23.36,23.36,0,0,0-2.34-10.57,19.31,19.31,0,0,0-6.43-7.48,16.28,16.28,0,0,0-9.38-2.8,16.71,16.71,0,0,0-9.33,2.7,18.4,18.4,0,0,0-6.48,7.38,23.7,23.7,0,0,0-2.35,10.77,25,25,0,0,0,2.3,10.83,18.2,18.2,0,0,0,6.43,7.58A16.66,16.66,0,0,0,291.29,349.41Z" style="fill:#f5f5f7"/><path d="M354.93,301.83a21.61,21.61,0,0,1,12,3.39,24,24,0,0,1,8.33,9.33,29.17,29.17,0,0,1,3.1,13.71,29.61,29.61,0,0,1-3.1,13.67,24.46,24.46,0,0,1-8.38,9.58A21,21,0,0,1,355,355a20,20,0,0,1-6.63-1.1,22.55,22.55,0,0,1-10.33-7.28,22.14,22.14,0,0,1-3.19-5.39l1.8-1.29v11.27a2.91,2.91,0,0,1-3,3,2.91,2.91,0,0,1-3-3V283.27a3,3,0,0,1,.8-2.14,2.84,2.84,0,0,1,2.19-.85,2.91,2.91,0,0,1,3,3v33.42l-1.4-.8a18.56,18.56,0,0,1,2.94-5.63,22,22,0,0,1,4.54-4.44,20.91,20.91,0,0,1,5.69-2.94A20,20,0,0,1,354.93,301.83Zm-.5,5.58a16.77,16.77,0,0,0-9.47,2.7,18.61,18.61,0,0,0-6.44,7.38,23.83,23.83,0,0,0-2.34,10.77,24.58,24.58,0,0,0,2.34,10.83,18.74,18.74,0,0,0,6.44,7.58,16.57,16.57,0,0,0,9.47,2.74,16,16,0,0,0,9.33-2.79A19.58,19.58,0,0,0,370.2,339a23.94,23.94,0,0,0,2.39-10.73,23.46,23.46,0,0,0-2.39-10.77,19.09,19.09,0,0,0-6.44-7.38A16.38,16.38,0,0,0,354.43,307.41Z" style="fill:#f5f5f7"/><path d="M397.33,351a2.84,2.84,0,0,1-.9,2.09,2.87,2.87,0,0,1-2.09.9,2.83,2.83,0,0,1-2.15-.9,3,3,0,0,1-.85-2.09V283.17a3.08,3.08,0,0,1,3-3,2.81,2.81,0,0,1,2.14.9,2.94,2.94,0,0,1,.85,2.09Z" style="fill:#f5f5f7"/><path d="M435.34,355a27.37,27.37,0,0,1-13.57-3.29,23.55,23.55,0,0,1-9.18-9.18,27.78,27.78,0,0,1-3.29-13.77,29.22,29.22,0,0,1,3.34-14.46,24.48,24.48,0,0,1,8.68-9.23,21.46,21.46,0,0,1,11.32-3.24,24.19,24.19,0,0,1,8.53,1.54,21.66,21.66,0,0,1,7.34,4.59,23.77,23.77,0,0,1,5.18,7.44,25.45,25.45,0,0,1,2.1,10.17,2.72,2.72,0,0,1-.9,2.05,3,3,0,0,1-2.09.84h-40l-1.2-5.38H450.9l-1.3,1.19v-2a15.13,15.13,0,0,0-3.09-8,17,17,0,0,0-6.23-5,17.93,17.93,0,0,0-7.64-1.7,17.11,17.11,0,0,0-6.13,1.2,16.22,16.22,0,0,0-5.69,3.74,19.47,19.47,0,0,0-4.14,6.49,24.84,24.84,0,0,0-1.59,9.32A23.48,23.48,0,0,0,417.48,339a18.52,18.52,0,0,0,6.88,7.58,20.23,20.23,0,0,0,10.88,2.79,18.38,18.38,0,0,0,6.18-1,18.09,18.09,0,0,0,4.94-2.65,19.05,19.05,0,0,0,3.54-3.44,3.37,3.37,0,0,1,2.1-.9,2.43,2.43,0,0,1,1.84.8,2.55,2.55,0,0,1,.75,1.8,2.73,2.73,0,0,1-1,2.09,26.88,26.88,0,0,1-7.78,6.24A21.32,21.32,0,0,1,435.34,355Z" style="fill:#f5f5f7"/><path d="M212.25,283.84h61.68a4.61,4.61,0,0,1,4.69,4.69,4.25,4.25,0,0,1-1.35,3.19,4.59,4.59,0,0,1-3.34,1.3H212.25a4.52,4.52,0,0,1-3.34-1.35,4.42,4.42,0,0,1-1.35-3.24,4.36,4.36,0,0,1,1.35-3.29A4.59,4.59,0,0,1,212.25,283.84Zm30.42.33a4.78,4.78,0,0,1,3.6,1.45,5,5,0,0,1,1.39,3.64v51.27a6,6,0,0,0,.6,2.9,3.1,3.1,0,0,0,1.65,1.49,5.84,5.84,0,0,0,2.14.4,4.5,4.5,0,0,0,1.95-.4,4.82,4.82,0,0,1,2-.4,3,3,0,0,1,2.2,1.1,4.3,4.3,0,0,1,1,3,4.43,4.43,0,0,1-2.59,3.9,11.06,11.06,0,0,1-5.59,1.49,31.34,31.34,0,0,1-4-.3,12.48,12.48,0,0,1-4.44-1.49,9.1,9.1,0,0,1-3.54-3.84,16.21,16.21,0,0,1-1.39-7.44V289.26a4.94,4.94,0,0,1,1.44-3.64A4.81,4.81,0,0,1,242.67,284.17Z" style="fill:url(#Degradado_sin_nombre_39-4)"/></g></g></svg>