<svg xmlns="http://www.w3.org/2000/svg" xmlns:xlink="http://www.w3.org/1999/xlink" viewBox="0 0 455.79 74.82"><defs><linearGradient id="Degradado_sin_nombre_39" x1="232.1" y1="-22.82" x2="271.62" y2="88.91" gradientUnits="userSpaceOnUse"><stop offset="0" stop-color="#00ba5c"/><stop offset="1" stop-color="#008896"/></linearGradient></defs><g id="Capa_2" data-name="Capa 2"><g id="Capa_1-2" data-name="Capa 1"><path d="M24.24,21.65a21.63,21.63,0,0,1,12,3.39,24.12,24.12,0,0,1,8.33,9.33,29.26,29.26,0,0,1,3.09,13.71,29.76,29.76,0,0,1-3.09,13.67,24.46,24.46,0,0,1-8.38,9.58,21,21,0,0,1-11.87,3.49,20,20,0,0,1-6.63-1.1A22.55,22.55,0,0,1,7.38,66.44a22.14,22.14,0,0,1-3.19-5.39L6,59.76V71a2.89,2.89,0,0,1-3,3,2.91,2.91,0,0,1-3-3V3.09A3,3,0,0,1,.8,1,2.84,2.84,0,0,1,3,.1a2.89,2.89,0,0,1,3,3V36.51l-1.39-.8a18.34,18.34,0,0,1,2.94-5.63,22,22,0,0,1,4.54-4.44,21.07,21.07,0,0,1,5.69-2.95A20.27,20.27,0,0,1,24.24,21.65Zm-.5,5.58a16.77,16.77,0,0,0-9.47,2.7,18.47,18.47,0,0,0-6.44,7.38A23.83,23.83,0,0,0,5.49,48.08,24.58,24.58,0,0,0,7.83,58.91a18.73,18.73,0,0,0,6.44,7.58,16.57,16.57,0,0,0,9.47,2.74,16,16,0,0,0,9.33-2.79,19.63,19.63,0,0,0,6.43-7.63,23.82,23.82,0,0,0,2.4-10.73,23.33,23.33,0,0,0-2.4-10.77,19,19,0,0,0-6.43-7.38A16.38,16.38,0,0,0,23.74,27.23Z" style="fill:#f5f5f7"/><path d="M107.14,48.28A27.7,27.7,0,0,1,103.8,61.9a25.1,25.1,0,0,1-9,9.48,25.7,25.7,0,0,1-25.69,0A25,25,0,0,1,60,61.9a27.6,27.6,0,0,1-3.34-13.62A27.51,27.51,0,0,1,60,34.62a25.44,25.44,0,0,1,9.08-9.48,25.38,25.38,0,0,1,25.69,0,25.55,25.55,0,0,1,9,9.48A27.61,27.61,0,0,1,107.14,48.28Zm-6,0a22.93,22.93,0,0,0-2.49-10.82A19.28,19.28,0,0,0,91.83,30a18.21,18.21,0,0,0-9.93-2.75A18,18,0,0,0,72.07,30a19.71,19.71,0,0,0-6.88,7.48,22.48,22.48,0,0,0-2.54,10.82,22.21,22.21,0,0,0,2.54,10.78,19.86,19.86,0,0,0,6.88,7.43,18,18,0,0,0,9.83,2.74,18.21,18.21,0,0,0,9.93-2.74,19.42,19.42,0,0,0,6.83-7.43A22.65,22.65,0,0,0,101.15,48.28Z" style="fill:#f5f5f7"/><path d="M166.49,48.28a27.6,27.6,0,0,1-3.34,13.62,25,25,0,0,1-9,9.48,25.68,25.68,0,0,1-25.68,0,24.93,24.93,0,0,1-9.08-9.48A27.6,27.6,0,0,1,116,48.28a27.51,27.51,0,0,1,3.34-13.66,25.36,25.36,0,0,1,9.08-9.48,25.36,25.36,0,0,1,25.68,0,25.47,25.47,0,0,1,9,9.48A27.51,27.51,0,0,1,166.49,48.28Zm-6,0A22.81,22.81,0,0,0,158,37.46,19.28,19.28,0,0,0,151.18,30a18.17,18.17,0,0,0-9.93-2.75A18,18,0,0,0,131.43,30a19.63,19.63,0,0,0-6.88,7.48A22.49,22.49,0,0,0,122,48.28a22.22,22.22,0,0,0,2.55,10.78,19.78,19.78,0,0,0,6.88,7.43,18,18,0,0,0,9.82,2.74,18.16,18.16,0,0,0,9.93-2.74A19.42,19.42,0,0,0,158,59.06,22.54,22.54,0,0,0,160.51,48.28Z" style="fill:#f5f5f7"/><path d="M182.35,73.82a2.81,2.81,0,0,1-2.14-.9,2.93,2.93,0,0,1-.85-2.09V3A2.93,2.93,0,0,1,180.21.9a3,3,0,0,1,4.29,0A3,3,0,0,1,185.35,3V70.83a3,3,0,0,1-.85,2.09A2.83,2.83,0,0,1,182.35,73.82Zm33.92-51.18a2.73,2.73,0,0,1,2,.95,3,3,0,0,1,.9,2.05,3,3,0,0,1-1.1,2.29L184.55,56.46l-.3-7.08,29.93-25.74A2.75,2.75,0,0,1,216.27,22.64Zm.8,51.18a2.7,2.7,0,0,1-2.19-1.1L192.13,48.58l4.49-4.09,22.55,24a3.37,3.37,0,0,1,.89,2.3A2.55,2.55,0,0,1,219,73,3.41,3.41,0,0,1,217.07,73.82Z" style="fill:#f5f5f7"/><path d="M312,22.84a2.81,2.81,0,0,1,2.14.9,3.07,3.07,0,0,1,.85,2.2V70.83a3.08,3.08,0,0,1-3,3,2.81,2.81,0,0,1-2.2-.9,3,3,0,0,1-.79-2.09V59l1.69-.8a11.93,11.93,0,0,1-1.55,5.69A20.55,20.55,0,0,1,305,69.23a21.61,21.61,0,0,1-6.34,4,20.1,20.1,0,0,1-7.93,1.55,21.45,21.45,0,0,1-12-3.49,24,24,0,0,1-8.38-9.58,30.12,30.12,0,0,1-3-13.67,29.26,29.26,0,0,1,3.09-13.71A23.92,23.92,0,0,1,278.72,25a22.44,22.44,0,0,1,19.9-1.9,21,21,0,0,1,6.53,4.09,19.35,19.35,0,0,1,4.39,5.94,15.83,15.83,0,0,1,1.6,6.93l-2.09-1.49V25.94a3.2,3.2,0,0,1,.79-2.2A2.81,2.81,0,0,1,312,22.84ZM291.29,69.23a16.46,16.46,0,0,0,9.38-2.74,18.79,18.79,0,0,0,6.43-7.58,24.58,24.58,0,0,0,2.34-10.83,23.36,23.36,0,0,0-2.34-10.57A19.31,19.31,0,0,0,300.67,30a16.28,16.28,0,0,0-9.38-2.8,16.71,16.71,0,0,0-9.33,2.7,18.33,18.33,0,0,0-6.48,7.38,23.7,23.7,0,0,0-2.35,10.77,25,25,0,0,0,2.3,10.83,18.26,18.26,0,0,0,6.43,7.58A16.66,16.66,0,0,0,291.29,69.23Z" style="fill:#f5f5f7"/><path d="M354.93,21.65A21.61,21.61,0,0,1,367,25a24,24,0,0,1,8.33,9.33,29.14,29.14,0,0,1,3.1,13.71,29.64,29.64,0,0,1-3.1,13.67,24.46,24.46,0,0,1-8.38,9.58A21,21,0,0,1,355,74.82a20,20,0,0,1-6.63-1.1,22.55,22.55,0,0,1-10.33-7.28,22.14,22.14,0,0,1-3.19-5.39l1.8-1.29V71a2.91,2.91,0,0,1-3,3,2.91,2.91,0,0,1-3-3V3.09a3,3,0,0,1,.8-2.14A2.84,2.84,0,0,1,333.68.1a2.91,2.91,0,0,1,3,3V36.51l-1.4-.8a18.56,18.56,0,0,1,2.94-5.63,22,22,0,0,1,4.54-4.44,21.22,21.22,0,0,1,5.69-2.95A20.27,20.27,0,0,1,354.93,21.65Zm-.5,5.58a16.77,16.77,0,0,0-9.47,2.7,18.54,18.54,0,0,0-6.44,7.38,23.83,23.83,0,0,0-2.34,10.77,24.58,24.58,0,0,0,2.34,10.83A18.81,18.81,0,0,0,345,66.49a16.57,16.57,0,0,0,9.47,2.74,16,16,0,0,0,9.33-2.79,19.66,19.66,0,0,0,6.44-7.63,23.94,23.94,0,0,0,2.39-10.73,23.46,23.46,0,0,0-2.39-10.77,19,19,0,0,0-6.44-7.38A16.38,16.38,0,0,0,354.43,27.23Z" style="fill:#f5f5f7"/><path d="M397.33,70.83a3,3,0,0,1-5.14,2.09,3,3,0,0,1-.85-2.09V3a2.86,2.86,0,0,1,.9-2.09,2.88,2.88,0,0,1,2.1-.9,2.81,2.81,0,0,1,2.14.9A2.93,2.93,0,0,1,397.33,3Z" style="fill:#f5f5f7"/><path d="M435.34,74.82a27.37,27.37,0,0,1-13.57-3.29,23.55,23.55,0,0,1-9.18-9.18,27.78,27.78,0,0,1-3.29-13.77,29.22,29.22,0,0,1,3.34-14.46,24.48,24.48,0,0,1,8.68-9.23,21.46,21.46,0,0,1,11.32-3.24,24.19,24.19,0,0,1,8.53,1.54,21.51,21.51,0,0,1,7.34,4.59,23.77,23.77,0,0,1,5.18,7.44,25.45,25.45,0,0,1,2.1,10.17,2.69,2.69,0,0,1-.9,2,2.94,2.94,0,0,1-2.09.85h-40l-1.2-5.38H450.9l-1.3,1.19v-2a15.13,15.13,0,0,0-3.09-8,17,17,0,0,0-6.23-5,17.93,17.93,0,0,0-7.64-1.7,17.11,17.11,0,0,0-6.13,1.2,16.22,16.22,0,0,0-5.69,3.74,19.47,19.47,0,0,0-4.14,6.49,24.8,24.8,0,0,0-1.59,9.32,23.48,23.48,0,0,0,2.39,10.68,18.52,18.52,0,0,0,6.88,7.58,20.23,20.23,0,0,0,10.88,2.79,18.13,18.13,0,0,0,6.18-1,17.8,17.8,0,0,0,4.94-2.64,19.37,19.37,0,0,0,3.54-3.44,3.37,3.37,0,0,1,2.1-.9,2.43,2.43,0,0,1,1.84.8,2.55,2.55,0,0,1,.75,1.8,2.73,2.73,0,0,1-1,2.09,26.85,26.85,0,0,1-7.78,6.23A21.22,21.22,0,0,1,435.34,74.82Z" style="fill:#f5f5f7"/><path d="M212.25,3.66h61.68a4.6,4.6,0,0,1,4.69,4.69,4.26,4.26,0,0,1-1.35,3.19,4.63,4.63,0,0,1-3.34,1.3H212.25a4.52,4.52,0,0,1-3.34-1.35,4.42,4.42,0,0,1-1.35-3.24A4.39,4.39,0,0,1,208.91,5,4.63,4.63,0,0,1,212.25,3.66ZM242.67,4a4.78,4.78,0,0,1,3.6,1.45,5,5,0,0,1,1.39,3.64V60.35a6,6,0,0,0,.6,2.9,3.1,3.1,0,0,0,1.65,1.49,5.84,5.84,0,0,0,2.14.4,4.5,4.5,0,0,0,1.95-.4,4.82,4.82,0,0,1,2-.4,3,3,0,0,1,2.2,1.1,4.3,4.3,0,0,1,1,3,4.41,4.41,0,0,1-2.59,3.89,11,11,0,0,1-5.59,1.5,31.34,31.34,0,0,1-4-.3A12.48,12.48,0,0,1,242.62,72a9.07,9.07,0,0,1-3.54-3.85,16.14,16.14,0,0,1-1.39-7.43V9.08a4.94,4.94,0,0,1,1.44-3.64A4.81,4.81,0,0,1,242.67,4Z" style="fill:url(#Degradado_sin_nombre_39)"/></g></g></svg>