<?xml version="1.0" encoding="utf-8"?>
<!-- Generator: Adobe Illustrator 25.0.1, SVG Export Plug-In . SVG Version: 6.00 Build 0)  -->
<svg version="1.1" id="Capa_1" xmlns="http://www.w3.org/2000/svg" xmlns:xlink="http://www.w3.org/1999/xlink" x="0px" y="0px"
	 viewBox="0 0 35.6 50.3" style="enable-background:new 0 0 35.6 50.3;" xml:space="preserve">
<style type="text/css">
	.st0{fill:none;stroke:url(#SVGID_1_);stroke-width:2;stroke-miterlimit:10;}
</style>
<linearGradient id="SVGID_1_" gradientUnits="userSpaceOnUse" x1="17.8918" y1="0.3849" x2="17.8918" y2="50.2346">
	<stop  offset="0" style="stop-color:#00BA5C"/>
	<stop  offset="1" style="stop-color:#008896"/>
</linearGradient>
<path class="st0" d="M17.9,49.2c-4.3,0-8.5-4.2-12-11.9c-2.7-6-4.6-13.6-4.6-18.5C1.2,9.4,8.6,1.6,17.9,1.4l0,0
	c9.3,0.2,16.7,8,16.6,17.5C34.5,27.9,27.5,49.2,17.9,49.2z M17.9,2.4C9.1,2.5,2.1,9.9,2.2,18.8c0,8.6,6.8,29.5,15.6,29.5
	s15.6-20.9,15.6-29.4C33.7,9.9,26.7,2.5,17.9,2.4z M17.9,26.6c-5-0.2-8.8-4.4-8.7-9.4c0.2-4.8,4-8.7,8.7-8.8l0,0
	c5,0.2,8.8,4.4,8.7,9.4C26.4,22.6,22.6,26.5,17.9,26.6L17.9,26.6z M17.9,9.3L17.9,9.3c-4.4,0.2-7.9,3.9-7.7,8.5
	c0.1,4.3,3.5,7.7,7.7,7.9l0,0c4.4-0.2,7.9-3.9,7.7-8.5C25.5,12.9,22.1,9.5,17.9,9.3z"/>
</svg>
